<svg width="38" height="39" viewBox="0 0 38 39" fill="none" xmlns="http://www.w3.org/2000/svg">
<g id="pajamas:cancel" clip-path="url(#clip0_1_197)">
<path id="Vector" fill-rule="evenodd" clip-rule="evenodd" d="M28.5831 31.603C25.6151 33.9533 21.887 35.131 18.1075 34.9122C14.3279 34.6934 10.7606 33.0935 8.08355 30.4165C5.40654 27.7395 3.80657 24.1721 3.5878 20.3925C3.36904 16.613 4.54674 12.8849 6.897 9.91687L28.5831 31.603ZM31.103 29.0855L9.41687 7.39463C12.3849 5.04436 16.113 3.86666 19.8925 4.08543C23.6721 4.30419 27.2395 5.90417 29.9165 8.58117C32.5935 11.2582 34.1934 14.8255 34.4122 18.6051C34.631 22.3846 33.4533 26.1128 31.103 29.0808V29.0855ZM38 19.5C38 24.5391 35.9982 29.3718 32.435 32.935C28.8718 36.4982 24.0391 38.5 19 38.5C13.9609 38.5 9.12816 36.4982 5.56497 32.935C2.00178 29.3718 0 24.5391 0 19.5C0 14.4609 2.00178 9.62816 5.56497 6.06497C9.12816 2.50178 13.9609 0.5 19 0.5C24.0391 0.5 28.8718 2.50178 32.435 6.06497C35.9982 9.62816 38 14.4609 38 19.5Z" fill="#1A1222"/>
</g>
<defs>
<clipPath id="clip0_1_197">
<rect width="38" height="38" fill="white" transform="translate(0 0.5)"/>
</clipPath>
</defs>
</svg>
