<svg width="441" height="400" viewBox="0 0 441 400" fill="none" xmlns="http://www.w3.org/2000/svg">
<path d="M7.54395 181.5L3.04395 185V206L28.0439 223.5L40.5439 286.5L45.5439 290V294L57.5439 303V306L61.0439 308.5H64.5439L163.544 386.5V389L167.544 392L174.544 391.5L184.544 399L199.044 393L203.044 377L231.044 365L242.044 373L318.044 339.5L320.544 343.5H323.544L327.544 341L331.044 339L331.544 333L347.044 325L351.544 317.5L378.044 305L386.044 308L398.044 303.5L414.044 253.5L415.044 242.5L438.044 233L440.044 218.5V210H437.044L185.544 312.5L7.54395 181.5Z" fill="#1A1222"/>
<path fill-rule="evenodd" clip-rule="evenodd" d="M44.5435 291.5L39.0435 286.5L26.5435 224L1.54395 205.5C1.54395 205.5 1.54313 199 1.04354 190C0.607196 182.139 3.51288 181.182 6.99948 180.033C7.50482 179.867 8.02236 179.696 8.54369 179.5L4.54395 184C3.54437 186 3.12657 188.299 5.04354 190L11.0435 194.5L14.5435 197.087L17.044 194L56.0426 221.5L52.5435 225.5L54.044 240L67.5435 235.5L68.044 237.5L74.544 235L76.544 236.5L67.5435 240.5L89.5435 256L99.5435 252L101.044 253.5L90.5435 257.5V267L108.544 260L112.044 292.5L110.044 294L106.544 263.5L90.0435 270L87.6527 268.326L90.044 297.5L78.544 290L79.044 306.5L74.044 303L71.044 282.681V283.5L43.0435 263L48.0435 294L168.544 388.5L170.5 390.065L167.044 356L135.044 332V349.5L130.044 346.5L126.044 325L112.044 315.5L104.044 301L116.326 288.226L116.044 288L114.544 275L113.044 262.5L115.544 264.5L117.544 287V271.5L121.544 267L123.544 268.5L119.044 273L118.544 273.5V288L138.835 303.083L139.044 302.976L149.044 310.5L148.967 310.615L175.044 330C185.775 335.978 193.765 336.167 209.544 329.5L222.044 324.5V308L206.044 315C189.044 321 183.537 320.226 173.544 313L119.044 273L124.044 268.5L167.044 300L162.544 303.312L174.544 312C184.773 319.214 190.544 318.5 205.544 313.5L221.358 306.581L213.044 301.5L216.544 300.5L224.544 306V325.5L211.544 331.536V347.5L250.544 330.5V287L255.544 285V321L274.044 312.5L274.544 277.5L277.544 276L277.044 313L273.544 327.5L314.044 309.5L316.044 260L318.044 259.5L316.044 309L327.044 313.5L329.544 254.5L332.044 253.5L329.544 314.5L333.544 317L343.044 285L344.544 248.327L346.544 247.5L345.544 282L361.544 275.5L363.544 240.5L369.044 238.5L366.544 280.5L399.544 265.5L402.544 224.243L405.544 223L404.544 234.5L415.544 240.5L416.544 226.5L408.544 222L411.044 221L418.044 225L435.044 217.5C439.544 215.5 439.544 213.5 435.294 208.25L434.544 206C440.587 209.254 440.579 210.347 440.548 214.904C440.546 215.249 440.544 215.613 440.544 216C440.544 231.5 440.044 234 436.044 236L419.044 243.5H415.544V252.5L398.544 304L385.544 310L378.544 306L351.544 318.5L348.544 326.5L317.73 340.453L319.544 340C321.1 343.87 321.635 343.58 324.228 342.172C324.33 342.116 324.435 342.059 324.544 342L327.044 340.5V336.414L328.044 336V340L330.044 338.5V335L332.044 334C332.044 338.284 332.044 339.231 331.571 339.677C331.437 339.803 331.265 339.889 331.044 340L324.044 344C322.048 345.497 319.308 345.501 317.555 340.533L242.544 374.5H241.044L230.544 366.5L203.544 378.5L200.044 393.5L187.544 399H183.044L176.544 393.5L175.044 392.5H170.044L169.544 392L169.044 391.5L64.0435 308.5L57.0597 303.512L57.6737 303.962V305.778L61.544 308.5H63.544L64.544 309H61.044L57.044 306V303.5L57.0435 303.5L45.0435 294.5L44.5435 291.5ZM169.544 392L168.966 391.555L167.544 391.5L163.544 388.5V387.5L163.044 387V389L167.044 392H169.544ZM221.625 306.744L222.044 307.999V307L221.625 306.744ZM146.044 311.299L147.044 312.043V321L146.044 319V311.299ZM139.044 306.092L145.044 310.555V318L139.044 313.5V306.092ZM137.044 304.604V313.5L139.044 318.5L148.044 324.5V312.787L167.369 327.162L167.044 327V354.5L134.544 330L134.076 302.396L137.044 304.604ZM168.047 327.667L168.544 355.5L172.044 390.5H173.544L172.544 331.012L168.047 327.667ZM174.063 332.142L175.044 390.5L184.544 397.5L194.544 350V336.991C188.233 337.811 182.317 336.598 174.544 332.5L174.063 332.142ZM70.8478 281.352L42.5435 260L41.5435 235L52.0435 242.5L55.0699 241.653L54.044 242V252.5L55.044 256.5L64.044 263V252V239.5H63.044V260.5L62.044 256.777V239.7L64.544 239L64.5435 252L78.0435 261.5L78.044 261.5V265.5L71.0388 272.415L70.0416 256L69.044 255.5L70.044 273.5L69.044 274.5L70.7293 277.375V280.549L70.8478 281.352ZM70.044 273.5L71.0388 272.415L71.044 272.5L70.044 273.5ZM80.0499 263.004L82.044 264.5L71.7107 275L81.544 282L86.044 277.5L84.633 266.213L80.0499 263.004ZM61.135 239.954L56.044 241.38V252.5L61.044 256V240L61.135 239.954ZM209.332 332.5C204.511 334.471 200.413 335.922 196.544 336.667V345.5L209.544 340.5L209.332 332.5ZM3.54354 191.5V204L25.0435 220L52.0435 240L50.5435 225.5L3.54354 191.5ZM29.5435 226L41.5435 285.5L44.5435 288L39.5435 258.5L38.5435 233L29.5435 226ZM66.5435 242V251L88.5435 266.5V257.5L66.5435 242ZM418.044 240.5L435.044 232.5C438.544 230.5 438.698 226.309 438.544 218L419.044 227L418.044 240.5ZM186.544 398L198.544 392.5L208.544 343.5L196.544 348.5L186.544 398ZM204.147 376L243.044 357L250.044 333.5L211.544 350L204.147 376ZM387.544 306.5L396.544 302.5L411.544 256L403.044 260L402.544 267.5L387.544 306.5ZM403.044 257.5L412.544 253V242.5L404.544 238L403.044 257.5ZM385.044 306.5L376.544 301.5L389.544 295.24L385.044 306.5ZM399.044 268.5L390.544 292.425L357.544 307.5L366.544 283L399.044 268.5ZM373.044 302.5L354.544 311L353.544 315L376.044 304.5L373.044 302.5ZM233.544 365L244.544 359L241.544 371L233.544 365ZM255.044 324L273.544 315.5L265.044 350.5L335.544 319.5L345.544 285L361.544 278L347.044 324L243.544 371.5L255.044 324ZM315.544 311.5L331.544 318.5L268.544 346.5L273.544 330L315.544 311.5ZM62.044 260.5L61.044 257L56.044 254L57.044 257L62.044 260.5ZM72.4146 280.25L75.044 301H77.044L76.044 287L72.4146 280.25ZM88.044 292.5L82.544 283L86.544 279L88.044 292.5ZM86.544 293.5L80.544 283.5L72.544 277.5L78.544 288L86.544 293.5ZM127.544 324.5L131.044 344.5L133.044 345.5L132.044 317.5L128.044 298.5L118.544 309.5L127.544 324.5ZM127.044 298L117.044 290.5L106.544 301.5L117.544 309L127.044 298ZM124.044 322L117.544 311L108.544 304.5L114.544 315L124.044 322ZM130.544 300.5L132.044 301.5V308L130.544 300.5ZM140.544 318L146.044 322L145.044 319.5L139.544 315.5L140.544 318Z" fill="#7F77E0"/>
<path d="M39.0435 286.5L38.9455 286.52L38.9519 286.552L38.9763 286.574L39.0435 286.5ZM44.5435 291.5L44.6422 291.484L44.6365 291.449L44.6108 291.426L44.5435 291.5ZM26.5435 224L26.6416 223.98L26.634 223.943L26.603 223.92L26.5435 224ZM1.54395 205.5L1.44395 205.5L1.44396 205.55L1.48447 205.58L1.54395 205.5ZM1.04354 190L1.14339 189.994L1.04354 190ZM6.99948 180.033L7.03077 180.128L6.99948 180.033ZM8.54369 179.5L8.61844 179.566L8.50848 179.406L8.54369 179.5ZM4.54395 184L4.46921 183.934L4.46042 183.943L4.4545 183.955L4.54395 184ZM5.04354 190L4.97694 190.075L4.98354 190.08L5.04354 190ZM11.0435 194.5L10.9835 194.58L10.9841 194.58L11.0435 194.5ZM14.5435 197.087L14.4841 197.167L14.561 197.224L14.6212 197.15L14.5435 197.087ZM17.044 194L17.1016 193.918L17.0251 193.864L16.9662 193.937L17.044 194ZM56.0426 221.5L56.1178 221.566L56.1909 221.482L56.1002 221.418L56.0426 221.5ZM52.5435 225.5L52.4683 225.434L52.4396 225.467L52.4441 225.51L52.5435 225.5ZM54.044 240L53.9445 240.01L53.9573 240.134L54.0756 240.095L54.044 240ZM67.5435 235.5L67.6405 235.476L67.6143 235.371L67.5119 235.405L67.5435 235.5ZM68.044 237.5L67.9469 237.524L67.9744 237.634L68.0798 237.593L68.044 237.5ZM74.544 235L74.604 234.92L74.5597 234.887L74.5081 234.907L74.544 235ZM76.544 236.5L76.5846 236.591L76.7402 236.522L76.604 236.42L76.544 236.5ZM67.5435 240.5L67.5029 240.409L67.3418 240.48L67.4859 240.582L67.5435 240.5ZM89.5435 256L89.4859 256.082L89.5303 256.113L89.5807 256.093L89.5435 256ZM99.5435 252L99.6142 251.929L99.5676 251.883L99.5064 251.907L99.5435 252ZM101.044 253.5L101.079 253.593L101.223 253.538L101.114 253.429L101.044 253.5ZM90.5435 257.5L90.5079 257.407L90.4435 257.431V257.5H90.5435ZM90.5435 267H90.4435V267.146L90.5798 267.093L90.5435 267ZM108.544 260L108.643 259.989L108.629 259.859L108.507 259.907L108.544 260ZM112.044 292.5L112.104 292.58L112.149 292.546L112.143 292.489L112.044 292.5ZM110.044 294L109.945 294.011L109.964 294.185L110.104 294.08L110.044 294ZM106.544 263.5L106.643 263.489L106.628 263.359L106.507 263.407L106.544 263.5ZM90.0435 270L89.9862 270.082L90.0302 270.113L90.0802 270.093L90.0435 270ZM87.6527 268.326L87.71 268.244L87.5356 268.122L87.553 268.335L87.6527 268.326ZM90.044 297.5L89.9893 297.584L90.1603 297.695L90.1436 297.492L90.044 297.5ZM78.544 290L78.5986 289.916L78.4382 289.812L78.444 290.003L78.544 290ZM79.044 306.5L78.9866 306.582L79.15 306.696L79.1439 306.497L79.044 306.5ZM74.044 303L73.945 303.015L73.9513 303.057L73.9866 303.082L74.044 303ZM71.044 282.681L71.1429 282.666L70.944 282.681H71.044ZM71.044 283.5L70.9849 283.581L71.144 283.697V283.5H71.044ZM43.0435 263L43.1026 262.919L42.906 262.775L42.9448 263.016L43.0435 263ZM48.0435 294L47.9448 294.016L47.951 294.055L47.9818 294.079L48.0435 294ZM168.544 388.5L168.606 388.422L168.605 388.421L168.544 388.5ZM170.5 390.065L170.437 390.143L170.623 390.292L170.599 390.055L170.5 390.065ZM167.044 356L167.143 355.99L167.139 355.946L167.104 355.92L167.044 356ZM135.044 332L135.104 331.92L134.944 331.8V332H135.044ZM135.044 349.5L134.993 349.586L135.144 349.677V349.5H135.044ZM130.044 346.5L129.946 346.518L129.954 346.563L129.993 346.586L130.044 346.5ZM126.044 325L126.142 324.982L126.135 324.941L126.1 324.917L126.044 325ZM112.044 315.5L111.956 315.548L111.968 315.569L111.988 315.583L112.044 315.5ZM104.044 301L103.972 300.931L103.921 300.984L103.956 301.048L104.044 301ZM116.326 288.226L116.398 288.296L116.474 288.217L116.389 288.148L116.326 288.226ZM116.044 288L115.944 288.011L115.949 288.052L115.981 288.078L116.044 288ZM114.544 275L114.643 274.989L114.643 274.988L114.544 275ZM113.044 262.5L113.106 262.422L112.915 262.269L112.944 262.512L113.044 262.5ZM115.544 264.5L115.644 264.491L115.64 264.449L115.606 264.422L115.544 264.5ZM117.544 287L117.444 287.009L117.644 287H117.544ZM117.544 271.5L117.469 271.434L117.444 271.462V271.5H117.544ZM121.544 267L121.604 266.92L121.53 266.865L121.469 266.934L121.544 267ZM123.544 268.5L123.615 268.571L123.696 268.489L123.604 268.42L123.544 268.5ZM118.544 273.5L118.473 273.429L118.444 273.459V273.5H118.544ZM118.544 288H118.444V288.05L118.484 288.08L118.544 288ZM138.835 303.083L138.775 303.164L138.825 303.201L138.88 303.172L138.835 303.083ZM139.044 302.976L139.104 302.896L139.054 302.859L138.998 302.887L139.044 302.976ZM149.044 310.5L149.127 310.555L149.18 310.477L149.104 310.42L149.044 310.5ZM148.967 310.615L148.884 310.56L148.831 310.639L148.907 310.696L148.967 310.615ZM175.044 330L174.983 330.081L174.995 330.087L175.044 330ZM209.544 329.5L209.507 329.407L209.505 329.408L209.544 329.5ZM222.044 324.5L222.081 324.593L222.144 324.568V324.5H222.044ZM222.044 308H222.144V307.847L222.004 307.909L222.044 308ZM206.044 315L206.077 315.095L206.084 315.092L206.044 315ZM173.544 313L173.485 313.081L173.485 313.081L173.544 313ZM124.044 268.5L124.103 268.419L124.037 268.371L123.977 268.426L124.044 268.5ZM167.044 300L167.103 300.081L167.213 300L167.103 299.919L167.044 300ZM162.544 303.312L162.485 303.232L162.374 303.313L162.485 303.394L162.544 303.312ZM174.544 312L174.485 312.081L174.486 312.082L174.544 312ZM205.544 313.5L205.576 313.595L205.584 313.592L205.544 313.5ZM221.358 306.581L221.398 306.673L221.574 306.596L221.41 306.496L221.358 306.581ZM213.044 301.5L213.016 301.404L212.797 301.466L212.992 301.585L213.044 301.5ZM216.544 300.5L216.601 300.418L216.562 300.391L216.516 300.404L216.544 300.5ZM224.544 306H224.644V305.947L224.601 305.918L224.544 306ZM224.544 325.5L224.586 325.591L224.644 325.564V325.5H224.544ZM211.544 331.536L211.502 331.445L211.444 331.472V331.536H211.544ZM211.544 347.5H211.444V347.653L211.584 347.592L211.544 347.5ZM250.544 330.5L250.584 330.592L250.644 330.565V330.5H250.544ZM250.544 287L250.507 286.907L250.444 286.932V287H250.544ZM255.544 285H255.644V284.852L255.507 284.907L255.544 285ZM255.544 321H255.444V321.156L255.586 321.091L255.544 321ZM274.044 312.5L274.086 312.591L274.143 312.565L274.144 312.501L274.044 312.5ZM274.544 277.5L274.499 277.411L274.445 277.438L274.444 277.499L274.544 277.5ZM277.544 276L277.644 276.001L277.646 275.837L277.499 275.911L277.544 276ZM277.044 313L277.141 313.023L277.144 313.013L277.144 313.001L277.044 313ZM273.544 327.5L273.447 327.477L273.399 327.674L273.585 327.591L273.544 327.5ZM314.044 309.5L314.085 309.591L314.141 309.566L314.144 309.504L314.044 309.5ZM316.044 260L316.02 259.903L315.947 259.921L315.944 259.996L316.044 260ZM318.044 259.5L318.144 259.504L318.149 259.371L318.02 259.403L318.044 259.5ZM316.044 309L315.944 308.996L315.941 309.066L316.006 309.093L316.044 309ZM327.044 313.5L327.006 313.593L327.138 313.646L327.144 313.504L327.044 313.5ZM329.544 254.5L329.507 254.407L329.447 254.431L329.444 254.496L329.544 254.5ZM332.044 253.5L332.144 253.504L332.15 253.35L332.007 253.407L332.044 253.5ZM329.544 314.5L329.444 314.496L329.442 314.554L329.491 314.585L329.544 314.5ZM333.544 317L333.491 317.085L333.602 317.154L333.64 317.028L333.544 317ZM343.044 285L343.14 285.028L343.143 285.017L343.144 285.004L343.044 285ZM344.544 248.327L344.506 248.235L344.447 248.259L344.444 248.323L344.544 248.327ZM346.544 247.5L346.644 247.503L346.648 247.349L346.506 247.408L346.544 247.5ZM345.544 282L345.444 281.997L345.44 282.15L345.582 282.093L345.544 282ZM361.544 275.5L361.582 275.593L361.64 275.569L361.644 275.506L361.544 275.5ZM363.544 240.5L363.51 240.406L363.448 240.429L363.444 240.494L363.544 240.5ZM369.044 238.5L369.144 238.506L369.153 238.354L369.01 238.406L369.044 238.5ZM366.544 280.5L366.444 280.494L366.434 280.66L366.585 280.591L366.544 280.5ZM399.544 265.5L399.585 265.591L399.639 265.566L399.644 265.507L399.544 265.5ZM402.544 224.243L402.506 224.15L402.449 224.174L402.444 224.235L402.544 224.243ZM405.544 223L405.644 223.009L405.658 222.845L405.506 222.908L405.544 223ZM404.544 234.5L404.444 234.491L404.439 234.556L404.496 234.588L404.544 234.5ZM415.544 240.5L415.496 240.588L415.633 240.662L415.644 240.507L415.544 240.5ZM416.544 226.5L416.644 226.507L416.648 226.444L416.593 226.413L416.544 226.5ZM408.544 222L408.507 221.907L408.313 221.985L408.495 222.087L408.544 222ZM411.044 221L411.094 220.913L411.052 220.889L411.007 220.907L411.044 221ZM418.044 225L417.994 225.087L418.038 225.112L418.084 225.091L418.044 225ZM435.044 217.5L435.084 217.591L435.084 217.591L435.044 217.5ZM435.294 208.25L435.199 208.282L435.204 208.299L435.216 208.313L435.294 208.25ZM434.544 206L434.591 205.912L434.369 205.792L434.449 206.032L434.544 206ZM440.548 214.904L440.648 214.905V214.905L440.548 214.904ZM436.044 236L436.084 236.092L436.088 236.089L436.044 236ZM419.044 243.5V243.6H419.065L419.084 243.591L419.044 243.5ZM415.544 243.5V243.4H415.444V243.5H415.544ZM415.544 252.5L415.638 252.531L415.644 252.516V252.5H415.544ZM398.544 304L398.585 304.091L398.625 304.073L398.638 304.031L398.544 304ZM385.544 310L385.494 310.087L385.539 310.112L385.585 310.091L385.544 310ZM378.544 306L378.593 305.913L378.548 305.888L378.501 305.909L378.544 306ZM351.544 318.5L351.501 318.409L351.464 318.426L351.45 318.465L351.544 318.5ZM348.544 326.5L348.585 326.591L348.623 326.574L348.638 326.535L348.544 326.5ZM317.73 340.453L317.689 340.362L317.754 340.551L317.73 340.453ZM319.544 340L319.637 339.963L319.604 339.882L319.52 339.903L319.544 340ZM324.228 342.172L324.18 342.084L324.228 342.172ZM324.544 342L324.592 342.088L324.595 342.086L324.544 342ZM327.044 340.5L327.095 340.586L327.144 340.557V340.5H327.044ZM327.044 336.414L327.006 336.321L326.944 336.347V336.414H327.044ZM328.044 336H328.144V335.85L328.006 335.908L328.044 336ZM328.044 340H327.944V340.2L328.104 340.08L328.044 340ZM330.044 338.5L330.104 338.58L330.144 338.55V338.5H330.044ZM330.044 335L329.999 334.911L329.944 334.938V335H330.044ZM332.044 334H332.144V333.838L331.999 333.911L332.044 334ZM331.571 339.677L331.64 339.75V339.75L331.571 339.677ZM331.044 340L330.999 339.91L330.994 339.913L331.044 340ZM324.044 344L323.994 343.913L323.984 343.92L324.044 344ZM317.555 340.533L317.65 340.499L317.613 340.396L317.514 340.441L317.555 340.533ZM242.544 374.5V374.6H242.566L242.585 374.591L242.544 374.5ZM241.044 374.5L240.983 374.58L241.01 374.6H241.044V374.5ZM230.544 366.5L230.605 366.42L230.557 366.385L230.503 366.409L230.544 366.5ZM203.544 378.5L203.503 378.409L203.458 378.429L203.447 378.477L203.544 378.5ZM200.044 393.5L200.084 393.592L200.13 393.571L200.141 393.523L200.044 393.5ZM187.544 399V399.1H187.565L187.584 399.092L187.544 399ZM183.044 399L182.979 399.076L183.007 399.1H183.044V399ZM176.544 393.5L176.609 393.423L176.599 393.417L176.544 393.5ZM175.044 392.5L175.099 392.417L175.074 392.4H175.044V392.5ZM170.044 392.5L169.973 392.571L170.003 392.6H170.044V392.5ZM169.044 391.5L169.115 391.429L169.106 391.422L169.044 391.5ZM64.0435 308.5L64.1056 308.421L64.1017 308.419L64.0435 308.5ZM57.0597 303.512L57.1178 303.43L57.0006 303.592L57.0597 303.512ZM57.6737 303.962H57.7737V303.911L57.7329 303.881L57.6737 303.962ZM57.6737 305.778H57.5737V305.83L57.6162 305.86L57.6737 305.778ZM61.544 308.5L61.4864 308.582L61.5123 308.6H61.544V308.5ZM63.544 308.5L63.5887 308.411L63.5676 308.4H63.544V308.5ZM64.544 309V309.1L64.5887 308.911L64.544 309ZM61.044 309L60.984 309.08L61.0106 309.1H61.044V309ZM57.044 306H56.944V306.05L56.984 306.08L57.044 306ZM57.044 303.5H57.144V303.449L57.1018 303.419L57.044 303.5ZM57.0435 303.5L56.9835 303.58L56.9857 303.582L57.0435 303.5ZM45.0435 294.5L44.9449 294.516L44.9515 294.556L44.9835 294.58L45.0435 294.5ZM168.966 391.555L169.026 391.476L169.001 391.456L168.969 391.455L168.966 391.555ZM167.544 391.5L167.484 391.58L167.509 391.599L167.54 391.6L167.544 391.5ZM163.544 388.5H163.444V388.55L163.484 388.58L163.544 388.5ZM163.544 387.5H163.644V387.459L163.615 387.429L163.544 387.5ZM163.044 387L163.115 386.929L162.944 386.759V387H163.044ZM163.044 389H162.944V389.05L162.984 389.08L163.044 389ZM167.044 392L166.984 392.08L167.011 392.1H167.044V392ZM221.625 306.744L221.678 306.659L221.444 306.516L221.531 306.776L221.625 306.744ZM222.044 307.999L221.949 308.031L222.144 307.999H222.044ZM222.044 307H222.144V306.944L222.096 306.915L222.044 307ZM146.044 311.299L146.104 311.219L145.944 311.1V311.299H146.044ZM147.044 312.043H147.144V311.993L147.104 311.963L147.044 312.043ZM147.044 321L146.955 321.045L147.144 321H147.044ZM146.044 319H145.944V319.024L145.955 319.045L146.044 319ZM139.044 306.092L139.104 306.011L138.944 305.893V306.092H139.044ZM145.044 310.555H145.144V310.505L145.104 310.475L145.044 310.555ZM145.044 318L144.984 318.08L145.144 318.2V318H145.044ZM139.044 313.5H138.944V313.55L138.984 313.58L139.044 313.5ZM137.044 313.5H136.944V313.519L136.951 313.537L137.044 313.5ZM137.044 304.604H137.144V304.554L137.104 304.524L137.044 304.604ZM139.044 318.5L138.951 318.537L138.963 318.566L138.988 318.583L139.044 318.5ZM148.044 324.5L147.988 324.583L148.144 324.687V324.5H148.044ZM148.044 312.787L148.104 312.707L147.944 312.588V312.787H148.044ZM167.369 327.162L167.324 327.252L167.428 327.082L167.369 327.162ZM167.044 327L167.089 326.911L166.944 326.838V327H167.044ZM167.044 354.5L166.984 354.58L167.144 354.701V354.5H167.044ZM134.544 330L134.444 330.002L134.445 330.05L134.484 330.08L134.544 330ZM134.076 302.396L134.136 302.316L133.973 302.195L133.976 302.398L134.076 302.396ZM168.544 355.5L168.444 355.502L168.444 355.51L168.544 355.5ZM168.047 327.667L168.107 327.587L167.943 327.465L167.947 327.669L168.047 327.667ZM172.044 390.5L171.944 390.51L171.953 390.6H172.044V390.5ZM173.544 390.5V390.6H173.646L173.644 390.498L173.544 390.5ZM172.544 331.012L172.644 331.011L172.643 330.961L172.604 330.932L172.544 331.012ZM175.044 390.5L174.944 390.502L174.945 390.551L174.985 390.581L175.044 390.5ZM174.063 332.142L174.123 332.062L173.96 331.941L173.963 332.144L174.063 332.142ZM184.544 397.5L184.485 397.581L184.61 397.673L184.642 397.521L184.544 397.5ZM194.544 350L194.642 350.021L194.644 350.01V350H194.544ZM194.544 336.991H194.644V336.877L194.531 336.892L194.544 336.991ZM174.544 332.5L174.484 332.58L174.49 332.585L174.497 332.588L174.544 332.5ZM70.8478 281.352L70.7876 281.432L70.9824 281.579L70.9467 281.337L70.8478 281.352ZM42.5435 260L42.4436 260.004L42.4455 260.051L42.4833 260.08L42.5435 260ZM41.5435 235L41.6017 234.919L41.4355 234.8L41.4436 235.004L41.5435 235ZM52.0435 242.5L51.9854 242.581L52.0244 242.609L52.0705 242.596L52.0435 242.5ZM55.0699 241.653L55.1019 241.747L55.0429 241.556L55.0699 241.653ZM54.044 242L54.0119 241.905L53.944 241.928V242H54.044ZM54.044 252.5H53.944V252.512L53.9469 252.524L54.044 252.5ZM55.044 256.5L54.9469 256.524L54.9558 256.56L54.9854 256.581L55.044 256.5ZM64.044 263L63.9854 263.081L64.144 263.196V263H64.044ZM64.044 239.5H64.144V239.4H64.044V239.5ZM63.044 239.5V239.4H62.944V239.5H63.044ZM63.044 260.5L62.9474 260.526L63.144 260.5H63.044ZM62.044 256.777H61.944V256.79L61.9474 256.803L62.044 256.777ZM62.044 239.7L62.017 239.604L61.944 239.624V239.7H62.044ZM64.544 239L64.644 239L64.644 238.868L64.517 238.904L64.544 239ZM64.5435 252H64.4435L64.4435 252.052L64.486 252.082L64.5435 252ZM78.0435 261.5L78.1036 261.42L78.1011 261.418L78.0435 261.5ZM78.044 261.5H78.144V261.45L78.104 261.42L78.044 261.5ZM78.044 265.5L78.1142 265.571L78.144 265.542V265.5H78.044ZM70.0416 256L70.1414 255.994L70.1379 255.936L70.0864 255.911L70.0416 256ZM69.044 255.5L69.0888 255.411L68.9345 255.333L68.9441 255.506L69.044 255.5ZM69.044 274.5L68.9733 274.429L68.9186 274.484L68.9577 274.551L69.044 274.5ZM70.7293 277.375H70.8293V277.348L70.8156 277.324L70.7293 277.375ZM70.7293 280.549H70.6293V280.557L70.6304 280.564L70.7293 280.549ZM71.044 272.5L71.1147 272.571L71.1465 272.539L71.1438 272.494L71.044 272.5ZM82.044 264.5L82.1152 264.57L82.1955 264.489L82.104 264.42L82.044 264.5ZM80.0499 263.004L80.1073 262.923L79.9899 263.084L80.0499 263.004ZM71.7107 275L71.6394 274.93L71.5572 275.013L71.6527 275.081L71.7107 275ZM81.544 282L81.486 282.081L81.5549 282.131L81.6147 282.071L81.544 282ZM86.044 277.5L86.1147 277.571L86.1493 277.536L86.1432 277.488L86.044 277.5ZM84.633 266.213L84.7323 266.2L84.7268 266.156L84.6904 266.131L84.633 266.213ZM56.044 241.38L56.017 241.284L55.944 241.304V241.38H56.044ZM61.135 239.954L61.1797 240.044L61.1081 239.858L61.135 239.954ZM56.044 252.5H55.944V252.552L55.9866 252.582L56.044 252.5ZM61.044 256L60.9866 256.082L61.144 256.192V256H61.044ZM61.044 240L60.9992 239.911L60.944 239.938V240H61.044ZM196.544 336.667L196.525 336.569L196.444 336.585V336.667H196.544ZM209.332 332.5L209.431 332.497L209.428 332.353L209.294 332.407L209.332 332.5ZM196.544 345.5H196.444V345.646L196.58 345.593L196.544 345.5ZM209.544 340.5L209.58 340.593L209.646 340.568L209.644 340.497L209.544 340.5ZM3.54354 204H3.44354V204.05L3.48384 204.08L3.54354 204ZM3.54354 191.5L3.60215 191.419L3.44354 191.304V191.5H3.54354ZM25.0435 220L24.9838 220.08L24.984 220.08L25.0435 220ZM52.0435 240L51.984 240.08L52.1664 240.215L52.143 239.99L52.0435 240ZM50.5435 225.5L50.643 225.49L50.6384 225.445L50.6021 225.419L50.5435 225.5ZM41.5435 285.5L41.4455 285.52L41.4525 285.554L41.4795 285.577L41.5435 285.5ZM29.5435 226L29.6049 225.921L29.3923 225.756L29.4455 226.02L29.5435 226ZM44.5435 288L44.4795 288.077L44.6873 288.25L44.6421 287.983L44.5435 288ZM39.5435 258.5L39.4428 258.504L39.4449 258.517L39.5435 258.5ZM38.5435 233L38.6435 232.996L38.6416 232.95L38.6049 232.921L38.5435 233ZM66.5435 251H66.4435V251.052L66.4859 251.082L66.5435 251ZM66.5435 242L66.6011 241.918L66.4435 241.807V242H66.5435ZM88.5435 266.5L88.4859 266.582L88.6435 266.693V266.5H88.5435ZM88.5435 257.5H88.6435V257.448L88.6011 257.418L88.5435 257.5ZM435.044 232.5L435.086 232.591L435.093 232.587L435.044 232.5ZM418.044 240.5L417.944 240.493L417.932 240.663L418.087 240.59L418.044 240.5ZM438.544 218L438.644 217.998L438.641 217.845L438.502 217.909L438.544 218ZM419.044 227L419.002 226.909L418.949 226.934L418.944 226.993L419.044 227ZM198.544 392.5L198.586 392.591L198.632 392.57L198.642 392.52L198.544 392.5ZM186.544 398L186.446 397.98L186.407 398.173L186.586 398.091L186.544 398ZM208.544 343.5L208.642 343.52L208.68 343.335L208.505 343.408L208.544 343.5ZM196.544 348.5L196.505 348.408L196.456 348.428L196.446 348.48L196.544 348.5ZM243.044 357L243.088 357.09L243.127 357.071L243.14 357.029L243.044 357ZM204.147 376L204.05 375.973L203.989 376.188L204.19 376.09L204.147 376ZM250.044 333.5L250.14 333.529L250.201 333.324L250.005 333.408L250.044 333.5ZM211.544 350L211.505 349.908L211.461 349.927L211.448 349.973L211.544 350ZM396.544 302.5L396.585 302.591L396.625 302.573L396.639 302.531L396.544 302.5ZM387.544 306.5L387.451 306.464L387.364 306.689L387.585 306.591L387.544 306.5ZM411.544 256L411.639 256.031L411.71 255.811L411.501 255.91L411.544 256ZM403.044 260L403.001 259.91L402.948 259.935L402.944 259.993L403.044 260ZM402.544 267.5L402.637 267.536L402.643 267.522L402.644 267.507L402.544 267.5ZM412.544 253L412.587 253.09L412.644 253.063V253H412.544ZM403.044 257.5L402.944 257.492L402.931 257.664L403.087 257.59L403.044 257.5ZM412.544 242.5H412.644V242.442L412.593 242.413L412.544 242.5ZM404.544 238L404.593 237.913L404.456 237.836L404.444 237.992L404.544 238ZM376.544 301.5L376.501 301.41L376.332 301.491L376.493 301.586L376.544 301.5ZM385.044 306.5L384.993 306.586L385.094 306.645L385.137 306.537L385.044 306.5ZM389.544 295.24L389.637 295.277L389.732 295.038L389.501 295.15L389.544 295.24ZM390.544 292.425L390.586 292.516L390.624 292.499L390.638 292.459L390.544 292.425ZM399.044 268.5L399.138 268.533L399.216 268.314L399.003 268.409L399.044 268.5ZM357.544 307.5L357.45 307.466L357.367 307.691L357.586 307.591L357.544 307.5ZM366.544 283L366.503 282.909L366.465 282.926L366.45 282.966L366.544 283ZM354.544 311L354.502 310.909L354.459 310.929L354.447 310.976L354.544 311ZM373.044 302.5L373.099 302.417L373.053 302.386L373.002 302.409L373.044 302.5ZM353.544 315L353.447 314.976L353.396 315.179L353.586 315.091L353.544 315ZM376.044 304.5L376.086 304.591L376.247 304.515L376.099 304.417L376.044 304.5ZM244.544 359L244.641 359.024L244.696 358.803L244.496 358.912L244.544 359ZM233.544 365L233.496 364.912L233.36 364.987L233.484 365.08L233.544 365ZM241.544 371L241.484 371.08L241.604 371.17L241.641 371.024L241.544 371ZM273.544 315.5L273.641 315.524L273.69 315.323L273.502 315.409L273.544 315.5ZM255.044 324L255.002 323.909L254.958 323.929L254.947 323.976L255.044 324ZM265.044 350.5L264.947 350.476L264.899 350.673L265.084 350.592L265.044 350.5ZM335.544 319.5L335.584 319.592L335.627 319.573L335.64 319.528L335.544 319.5ZM345.544 285L345.504 284.908L345.461 284.927L345.448 284.972L345.544 285ZM361.544 278L361.639 278.03L361.705 277.82L361.504 277.908L361.544 278ZM347.044 324L347.086 324.091L347.126 324.072L347.139 324.03L347.044 324ZM243.544 371.5L243.447 371.476L243.398 371.677L243.586 371.591L243.544 371.5ZM331.544 318.5L331.585 318.591L331.792 318.499L331.584 318.408L331.544 318.5ZM315.544 311.5L315.584 311.408L315.544 311.391L315.504 311.408L315.544 311.5ZM268.544 346.5L268.448 346.471L268.385 346.68L268.585 346.591L268.544 346.5ZM273.544 330L273.504 329.908L273.462 329.927L273.448 329.971L273.544 330ZM61.044 257L61.1401 256.973L61.1293 256.935L61.0954 256.914L61.044 257ZM62.044 260.5L61.9866 260.582L62.2176 260.744L62.1401 260.473L62.044 260.5ZM56.044 254L56.0954 253.914L55.8636 253.775L55.9491 254.032L56.044 254ZM57.044 257L56.9491 257.032L56.9595 257.063L56.9866 257.082L57.044 257ZM75.044 301L74.9448 301.013L74.9558 301.1H75.044V301ZM72.4146 280.25L72.5027 280.203L72.3154 280.263L72.4146 280.25ZM77.044 301V301.1H77.1514L77.1437 300.993L77.044 301ZM76.044 287L76.1437 286.993L76.1422 286.972L76.132 286.953L76.044 287ZM82.544 283L82.4733 282.929L82.4189 282.984L82.4574 283.05L82.544 283ZM88.044 292.5L87.9574 292.55L88.1433 292.489L88.044 292.5ZM86.544 279L86.6433 278.989L86.6204 278.782L86.4733 278.929L86.544 279ZM80.544 283.5L80.6297 283.449L80.6196 283.432L80.604 283.42L80.544 283.5ZM86.544 293.5L86.4873 293.582L86.6297 293.449L86.544 293.5ZM72.544 277.5L72.604 277.42L72.4571 277.55L72.544 277.5ZM78.544 288L78.4571 288.05L78.4685 288.069L78.4873 288.082L78.544 288ZM131.044 344.5L130.945 344.517L130.954 344.567L130.999 344.589L131.044 344.5ZM127.544 324.5L127.642 324.483L127.639 324.464L127.63 324.449L127.544 324.5ZM133.044 345.5L132.999 345.589L133.15 345.665L133.144 345.496L133.044 345.5ZM132.044 317.5L132.144 317.496L132.144 317.488L132.142 317.479L132.044 317.5ZM128.044 298.5L128.142 298.479L128.1 298.282L127.968 298.435L128.044 298.5ZM118.544 309.5L118.468 309.435L118.421 309.489L118.458 309.551L118.544 309.5ZM117.044 290.5L117.104 290.42L117.033 290.367L116.972 290.431L117.044 290.5ZM127.044 298L127.12 298.065L127.19 297.984L127.104 297.92L127.044 298ZM106.544 301.5L106.472 301.431L106.39 301.516L106.488 301.583L106.544 301.5ZM117.544 309L117.488 309.083L117.561 309.133L117.62 309.065L117.544 309ZM117.544 311L117.63 310.949L117.619 310.931L117.603 310.919L117.544 311ZM124.044 322L123.985 322.081L124.13 321.949L124.044 322ZM108.544 304.5L108.603 304.419L108.457 304.55L108.544 304.5ZM114.544 315L114.457 315.05L114.468 315.068L114.485 315.081L114.544 315ZM132.044 301.5H132.144V301.446L132.099 301.417L132.044 301.5ZM130.544 300.5L130.599 300.417L130.399 300.283L130.446 300.52L130.544 300.5ZM132.044 308L131.946 308.02L132.144 308H132.044ZM146.044 322L145.985 322.081L146.266 322.285L146.137 321.963L146.044 322ZM140.544 318L140.451 318.037L140.462 318.064L140.485 318.081L140.544 318ZM145.044 319.5L145.137 319.463L145.126 319.436L145.103 319.419L145.044 319.5ZM139.544 315.5L139.603 315.419L139.322 315.215L139.451 315.537L139.544 315.5ZM436.544 210L436.584 210.092L436.697 210.043L436.625 209.942L436.544 210ZM38.9763 286.574L44.4763 291.574L44.6108 291.426L39.1108 286.426L38.9763 286.574ZM26.4455 224.02L38.9455 286.52L39.1416 286.48L26.6416 223.98L26.4455 224.02ZM1.48447 205.58L26.4841 224.08L26.603 223.92L1.60344 205.42L1.48447 205.58ZM0.943696 190.006C1.19342 194.504 1.31848 198.378 1.38112 201.127C1.41244 202.502 1.42814 203.595 1.43602 204.345C1.43996 204.72 1.44195 205.008 1.44294 205.204C1.44344 205.301 1.44369 205.375 1.44382 205.425C1.44389 205.45 1.44392 205.469 1.44394 205.481C1.44394 205.487 1.44395 205.492 1.44395 205.495C1.44395 205.497 1.44395 205.498 1.44395 205.499C1.44395 205.499 1.44395 205.5 1.44395 205.5C1.44395 205.5 1.44395 205.5 1.44395 205.5C1.44395 205.5 1.44395 205.5 1.54395 205.5C1.64395 205.5 1.64395 205.5 1.64395 205.5C1.64395 205.5 1.64395 205.5 1.64395 205.5C1.64395 205.499 1.64395 205.499 1.64395 205.499C1.64395 205.498 1.64395 205.497 1.64395 205.495C1.64395 205.492 1.64394 205.487 1.64394 205.481C1.64392 205.468 1.64389 205.449 1.64382 205.425C1.64369 205.375 1.64344 205.3 1.64294 205.203C1.64194 205.007 1.63996 204.718 1.63601 204.343C1.62813 203.592 1.6124 202.498 1.58107 201.123C1.51839 198.372 1.39325 194.496 1.14339 189.994L0.943696 190.006ZM6.96819 179.938C5.23031 180.511 3.602 181.045 2.47274 182.437C1.34173 183.831 0.725015 186.066 0.943696 190.006L1.14339 189.994C0.925723 186.073 1.54368 183.899 2.62807 182.563C3.71421 181.224 5.28204 180.704 7.03077 180.128L6.96819 179.938ZM8.50848 179.406C7.9894 179.602 7.47381 179.772 6.96819 179.938L7.03077 180.128C7.53582 179.962 8.05531 179.791 8.57891 179.594L8.50848 179.406ZM4.6187 184.066L8.61844 179.566L8.46895 179.434L4.46921 183.934L4.6187 184.066ZM5.10991 189.925C4.17377 189.094 3.81 188.122 3.80003 187.111C3.79003 186.096 4.13717 185.038 4.6334 184.045L4.4545 183.955C3.95115 184.962 3.5896 186.054 3.60004 187.113C3.61053 188.177 3.99634 189.204 4.97717 190.075L5.10991 189.925ZM11.1035 194.42L5.10354 189.92L4.98354 190.08L10.9835 194.58L11.1035 194.42ZM14.603 197.007L11.103 194.42L10.9841 194.58L14.4841 197.167L14.603 197.007ZM16.9662 193.937L14.4658 197.024L14.6212 197.15L17.1217 194.063L16.9662 193.937ZM56.1002 221.418L17.1016 193.918L16.9863 194.082L55.9849 221.582L56.1002 221.418ZM52.6188 225.566L56.1178 221.566L55.9673 221.434L52.4683 225.434L52.6188 225.566ZM54.1434 239.99L52.643 225.49L52.4441 225.51L53.9445 240.01L54.1434 239.99ZM67.5119 235.405L54.0123 239.905L54.0756 240.095L67.5752 235.595L67.5119 235.405ZM68.141 237.476L67.6405 235.476L67.4465 235.524L67.9469 237.524L68.141 237.476ZM74.5081 234.907L68.0081 237.407L68.0798 237.593L74.5798 235.093L74.5081 234.907ZM76.604 236.42L74.604 234.92L74.484 235.08L76.484 236.58L76.604 236.42ZM67.5841 240.591L76.5846 236.591L76.5033 236.409L67.5029 240.409L67.5841 240.591ZM89.6011 255.918L67.6011 240.418L67.4859 240.582L89.4859 256.082L89.6011 255.918ZM99.5064 251.907L89.5064 255.907L89.5807 256.093L99.5807 252.093L99.5064 251.907ZM101.114 253.429L99.6142 251.929L99.4728 252.071L100.973 253.571L101.114 253.429ZM90.5791 257.593L101.079 253.593L101.008 253.407L90.5079 257.407L90.5791 257.593ZM90.6435 267V257.5H90.4435V267H90.6435ZM108.507 259.907L90.5073 266.907L90.5798 267.093L108.58 260.093L108.507 259.907ZM112.143 292.489L108.643 259.989L108.444 260.011L111.944 292.511L112.143 292.489ZM110.104 294.08L112.104 292.58L111.984 292.42L109.984 293.92L110.104 294.08ZM106.444 263.511L109.945 294.011L110.143 293.989L106.643 263.489L106.444 263.511ZM90.0802 270.093L106.58 263.593L106.507 263.407L90.0069 269.907L90.0802 270.093ZM87.5953 268.408L89.9862 270.082L90.1009 269.918L87.71 268.244L87.5953 268.408ZM90.1436 297.492L87.7523 268.318L87.553 268.335L89.9443 297.508L90.1436 297.492ZM78.4893 290.084L89.9893 297.584L90.0986 297.416L78.5986 289.916L78.4893 290.084ZM79.1439 306.497L78.6439 289.997L78.444 290.003L78.944 306.503L79.1439 306.497ZM73.9866 303.082L78.9866 306.582L79.1013 306.418L74.1013 302.918L73.9866 303.082ZM70.945 282.695L73.945 303.015L74.1429 302.985L71.1429 282.666L70.945 282.695ZM71.144 283.5V282.681H70.944V283.5H71.144ZM42.9845 263.081L70.9849 283.581L71.103 283.419L43.1026 262.919L42.9845 263.081ZM48.1423 293.984L43.1423 262.984L42.9448 263.016L47.9448 294.016L48.1423 293.984ZM168.605 388.421L48.1052 293.921L47.9818 294.079L168.482 388.579L168.605 388.421ZM170.562 389.987L168.606 388.422L168.481 388.578L170.437 390.143L170.562 389.987ZM166.944 356.01L170.4 390.075L170.599 390.055L167.143 355.99L166.944 356.01ZM134.984 332.08L166.984 356.08L167.104 355.92L135.104 331.92L134.984 332.08ZM135.144 349.5V332H134.944V349.5H135.144ZM129.993 346.586L134.993 349.586L135.095 349.414L130.095 346.414L129.993 346.586ZM125.946 325.018L129.946 346.518L130.142 346.482L126.142 324.982L125.946 325.018ZM111.988 315.583L125.988 325.083L126.1 324.917L112.1 315.417L111.988 315.583ZM103.956 301.048L111.956 315.548L112.132 315.452L104.132 300.952L103.956 301.048ZM116.254 288.157L103.972 300.931L104.116 301.069L116.398 288.296L116.254 288.157ZM115.981 288.078L116.264 288.304L116.389 288.148L116.106 287.922L115.981 288.078ZM114.445 275.011L115.944 288.011L116.143 287.989L114.643 274.989L114.445 275.011ZM112.944 262.512L114.445 275.012L114.643 274.988L113.143 262.488L112.944 262.512ZM115.606 264.422L113.106 262.422L112.981 262.578L115.481 264.578L115.606 264.422ZM117.644 286.991L115.644 264.491L115.444 264.509L117.444 287.009L117.644 286.991ZM117.444 271.5V287H117.644V271.5H117.444ZM121.469 266.934L117.469 271.434L117.619 271.566L121.619 267.066L121.469 266.934ZM123.604 268.42L121.604 266.92L121.484 267.08L123.484 268.58L123.604 268.42ZM119.115 273.071L123.615 268.571L123.473 268.429L118.973 272.929L119.115 273.071ZM118.615 273.571L119.115 273.071L118.973 272.929L118.473 273.429L118.615 273.571ZM118.644 288V273.5H118.444V288H118.644ZM138.894 303.003L118.604 287.92L118.484 288.08L138.775 303.164L138.894 303.003ZM138.88 303.172L139.09 303.065L138.998 302.887L138.789 302.994L138.88 303.172ZM138.984 303.056L148.984 310.58L149.104 310.42L139.104 302.896L138.984 303.056ZM148.961 310.445L148.884 310.56L149.05 310.671L149.127 310.555L148.961 310.445ZM175.103 329.92L149.027 310.535L148.907 310.696L174.984 330.08L175.103 329.92ZM209.505 329.408C201.62 332.739 195.692 334.353 190.4 334.392C185.112 334.431 180.449 332.896 175.092 329.913L174.995 330.087C180.37 333.082 185.068 334.631 190.402 334.592C195.733 334.553 201.689 332.927 209.583 329.592L209.505 329.408ZM222.006 324.407L209.507 329.407L209.581 329.593L222.081 324.593L222.006 324.407ZM221.944 308V324.5H222.144V308H221.944ZM222.004 307.909L206.004 314.908L206.084 315.092L222.084 308.092L222.004 307.909ZM206.011 314.906C197.512 317.905 191.902 319.205 187.174 318.86C182.451 318.515 178.594 316.528 173.603 312.919L173.485 313.081C178.487 316.698 182.381 318.711 187.159 319.059C191.932 319.408 197.576 318.095 206.077 315.094L206.011 314.906ZM173.603 312.919L119.103 272.919L118.985 273.081L173.485 313.081L173.603 312.919ZM119.111 273.074L124.111 268.574L123.977 268.426L118.977 272.926L119.111 273.074ZM123.985 268.581L166.985 300.081L167.103 299.919L124.103 268.419L123.985 268.581ZM166.985 299.919L162.485 303.232L162.603 303.393L167.103 300.081L166.985 299.919ZM162.485 303.394L174.485 312.081L174.603 311.919L162.603 303.231L162.485 303.394ZM174.486 312.082C179.61 315.695 183.629 317.332 188.253 317.43C192.869 317.529 198.077 316.094 205.576 313.595L205.512 313.405C198.011 315.906 192.834 317.328 188.257 317.23C183.688 317.133 179.707 315.519 174.602 311.918L174.486 312.082ZM205.584 313.592L221.398 306.673L221.318 306.49L205.504 313.408L205.584 313.592ZM212.992 301.585L221.306 306.667L221.41 306.496L213.096 301.415L212.992 301.585ZM216.516 300.404L213.016 301.404L213.071 301.596L216.571 300.596L216.516 300.404ZM224.601 305.918L216.601 300.418L216.487 300.582L224.487 306.082L224.601 305.918ZM224.644 325.5V306H224.444V325.5H224.644ZM211.586 331.626L224.586 325.591L224.502 325.409L211.502 331.445L211.586 331.626ZM211.644 347.5V331.536H211.444V347.5H211.644ZM250.504 330.408L211.504 347.408L211.584 347.592L250.584 330.592L250.504 330.408ZM250.444 287V330.5H250.644V287H250.444ZM255.507 284.907L250.507 286.907L250.581 287.093L255.581 285.093L255.507 284.907ZM255.644 321V285H255.444V321H255.644ZM274.002 312.409L255.502 320.909L255.586 321.091L274.086 312.591L274.002 312.409ZM274.444 277.499L273.944 312.499L274.144 312.501L274.644 277.501L274.444 277.499ZM277.499 275.911L274.499 277.411L274.589 277.589L277.589 276.089L277.499 275.911ZM277.144 313.001L277.644 276.001L277.444 275.999L276.944 312.999L277.144 313.001ZM273.641 327.523L277.141 313.023L276.947 312.977L273.447 327.477L273.641 327.523ZM314.003 309.409L273.503 327.409L273.585 327.591L314.085 309.591L314.003 309.409ZM315.944 259.996L313.944 309.496L314.144 309.504L316.144 260.004L315.944 259.996ZM318.02 259.403L316.02 259.903L316.068 260.097L318.068 259.597L318.02 259.403ZM316.144 309.004L318.144 259.504L317.944 259.496L315.944 308.996L316.144 309.004ZM327.082 313.407L316.082 308.907L316.006 309.093L327.006 313.593L327.082 313.407ZM329.444 254.496L326.944 313.496L327.144 313.504L329.644 254.504L329.444 254.496ZM332.007 253.407L329.507 254.407L329.581 254.593L332.081 253.593L332.007 253.407ZM329.644 314.504L332.144 253.504L331.944 253.496L329.444 314.496L329.644 314.504ZM333.597 316.915L329.597 314.415L329.491 314.585L333.491 317.085L333.597 316.915ZM342.948 284.972L333.448 316.972L333.64 317.028L343.14 285.028L342.948 284.972ZM344.444 248.323L342.944 284.996L343.144 285.004L344.644 248.331L344.444 248.323ZM346.506 247.408L344.506 248.235L344.582 248.42L346.582 247.592L346.506 247.408ZM345.644 282.003L346.644 247.503L346.444 247.497L345.444 281.997L345.644 282.003ZM361.506 275.407L345.506 281.907L345.582 282.093L361.582 275.593L361.506 275.407ZM363.444 240.494L361.444 275.494L361.644 275.506L363.644 240.506L363.444 240.494ZM369.01 238.406L363.51 240.406L363.578 240.594L369.078 238.594L369.01 238.406ZM366.644 280.506L369.144 238.506L368.944 238.494L366.444 280.494L366.644 280.506ZM399.503 265.409L366.503 280.409L366.585 280.591L399.585 265.591L399.503 265.409ZM402.444 224.235L399.444 265.493L399.644 265.507L402.644 224.25L402.444 224.235ZM405.506 222.908L402.506 224.15L402.582 224.335L405.582 223.092L405.506 222.908ZM404.644 234.509L405.644 223.009L405.444 222.991L404.444 234.491L404.644 234.509ZM415.592 240.412L404.592 234.412L404.496 234.588L415.496 240.588L415.592 240.412ZM416.444 226.493L415.444 240.493L415.644 240.507L416.644 226.507L416.444 226.493ZM408.495 222.087L416.495 226.587L416.593 226.413L408.593 221.913L408.495 222.087ZM411.007 220.907L408.507 221.907L408.581 222.093L411.081 221.093L411.007 220.907ZM418.094 224.913L411.094 220.913L410.994 221.087L417.994 225.087L418.094 224.913ZM435.003 217.409L418.004 224.909L418.084 225.091L435.084 217.591L435.003 217.409ZM435.216 208.313C436.277 209.624 437.07 210.728 437.593 211.677C438.117 212.627 438.365 213.414 438.35 214.092C438.32 215.431 437.253 216.409 435.003 217.409L435.084 217.591C437.334 216.591 438.517 215.569 438.55 214.096C438.566 213.367 438.299 212.544 437.768 211.581C437.236 210.616 436.435 209.501 435.371 208.187L435.216 208.313ZM434.449 206.032L435.199 208.282L435.388 208.218L434.638 205.968L434.449 206.032ZM440.648 214.905C440.664 212.635 440.676 211.191 439.909 209.912C439.144 208.636 437.61 207.538 434.591 205.912L434.496 206.088C437.52 207.716 439.004 208.792 439.738 210.015C440.47 211.236 440.464 212.616 440.448 214.904L440.648 214.905ZM440.644 216C440.644 215.614 440.646 215.25 440.648 214.905L440.448 214.904C440.446 215.248 440.444 215.613 440.444 216H440.644ZM436.088 236.089C437.095 235.586 437.89 235.047 438.512 234.274C439.134 233.5 439.577 232.5 439.891 231.084C440.519 228.259 440.644 223.746 440.644 216H440.444C440.444 223.754 440.318 228.241 439.696 231.041C439.386 232.438 438.953 233.406 438.356 234.148C437.759 234.89 436.992 235.414 435.999 235.911L436.088 236.089ZM419.084 243.591L436.084 236.091L436.003 235.909L419.003 243.409L419.084 243.591ZM415.544 243.6H419.044V243.4H415.544V243.6ZM415.644 252.5V243.5H415.444V252.5H415.644ZM398.638 304.031L415.638 252.531L415.449 252.469L398.449 303.969L398.638 304.031ZM385.585 310.091L398.585 304.091L398.502 303.909L385.502 309.909L385.585 310.091ZM378.494 306.087L385.494 310.087L385.593 309.913L378.593 305.913L378.494 306.087ZM351.586 318.591L378.586 306.091L378.501 305.909L351.501 318.409L351.586 318.591ZM348.638 326.535L351.637 318.535L351.45 318.465L348.45 326.465L348.638 326.535ZM317.771 340.545L348.585 326.591L348.503 326.409L317.689 340.362L317.771 340.545ZM319.52 339.903L317.706 340.356L317.754 340.551L319.568 340.097L319.52 339.903ZM324.18 342.084C323.529 342.437 323.017 342.715 322.586 342.877C322.156 343.038 321.824 343.077 321.531 342.971C321.236 342.865 320.957 342.605 320.652 342.117C320.348 341.63 320.025 340.93 319.637 339.963L319.451 340.037C319.84 341.006 320.168 341.72 320.483 342.223C320.797 342.725 321.106 343.031 321.463 343.159C321.822 343.289 322.208 343.232 322.656 343.064C323.103 342.896 323.63 342.61 324.275 342.259L324.18 342.084ZM324.496 341.912C324.388 341.971 324.282 342.028 324.18 342.084L324.275 342.259C324.378 342.204 324.483 342.147 324.591 342.088L324.496 341.912ZM326.992 340.414L324.492 341.914L324.595 342.086L327.095 340.586L326.992 340.414ZM326.944 336.414V340.5H327.144V336.414H326.944ZM328.006 335.908L327.006 336.321L327.082 336.506L328.082 336.092L328.006 335.908ZM328.144 340V336H327.944V340H328.144ZM329.984 338.42L327.984 339.92L328.104 340.08L330.104 338.58L329.984 338.42ZM329.944 335V338.5H330.144V335H329.944ZM331.999 333.911L329.999 334.911L330.089 335.089L332.089 334.089L331.999 333.911ZM331.64 339.75C331.907 339.498 332.026 339.113 332.085 338.285C332.144 337.453 332.144 336.14 332.144 334H331.944C331.944 336.144 331.944 337.447 331.885 338.271C331.826 339.099 331.708 339.41 331.503 339.604L331.64 339.75ZM331.089 340.089C331.306 339.981 331.493 339.888 331.64 339.75L331.503 339.604C331.381 339.719 331.224 339.798 330.999 339.911L331.089 340.089ZM324.094 344.087L331.094 340.087L330.994 339.913L323.994 343.913L324.094 344.087ZM317.461 340.566C318.341 343.061 319.479 344.336 320.673 344.784C321.871 345.233 323.091 344.84 324.104 344.08L323.984 343.92C323.002 344.657 321.854 345.014 320.744 344.597C319.631 344.179 318.522 342.972 317.65 340.499L317.461 340.566ZM242.585 374.591L317.597 340.624L317.514 340.441L242.503 374.409L242.585 374.591ZM241.044 374.6H242.544V374.4H241.044V374.6ZM230.483 366.58L240.983 374.58L241.105 374.42L230.605 366.42L230.483 366.58ZM203.585 378.591L230.585 366.591L230.503 366.409L203.503 378.409L203.585 378.591ZM200.141 393.523L203.641 378.523L203.447 378.477L199.947 393.477L200.141 393.523ZM187.584 399.092L200.084 393.592L200.004 393.408L187.504 398.908L187.584 399.092ZM183.044 399.1H187.544V398.9H183.044V399.1ZM176.479 393.576L182.979 399.076L183.109 398.924L176.609 393.424L176.479 393.576ZM174.988 392.583L176.488 393.583L176.599 393.417L175.099 392.417L174.988 392.583ZM170.044 392.6H175.044V392.4H170.044V392.6ZM169.473 392.071L169.973 392.571L170.115 392.429L169.615 391.929L169.473 392.071ZM168.973 391.571L169.473 392.071L169.615 391.929L169.115 391.429L168.973 391.571ZM63.9815 308.578L168.982 391.578L169.106 391.422L64.1055 308.422L63.9815 308.578ZM57.0016 303.593L63.9854 308.581L64.1017 308.419L57.1178 303.43L57.0016 303.593ZM57.0006 303.592L57.6146 304.042L57.7329 303.881L57.1188 303.431L57.0006 303.592ZM57.5737 303.962V305.778H57.7737V303.962H57.5737ZM57.6162 305.86L61.4864 308.582L61.6015 308.418L57.7312 305.696L57.6162 305.86ZM61.544 308.6H63.544V308.4H61.544V308.6ZM63.4992 308.589L64.4992 309.089L64.5887 308.911L63.5887 308.411L63.4992 308.589ZM64.544 308.9H61.044V309.1H64.544V308.9ZM61.104 308.92L57.104 305.92L56.984 306.08L60.984 309.08L61.104 308.92ZM57.144 306V303.5H56.944V306H57.144ZM56.9857 303.582L56.9861 303.582L57.1018 303.419L57.1014 303.418L56.9857 303.582ZM44.9835 294.58L56.9835 303.58L57.1035 303.42L45.1035 294.42L44.9835 294.58ZM44.4449 291.516L44.9449 294.516L45.1422 294.484L44.6422 291.484L44.4449 291.516ZM169.605 391.921L169.026 391.476L168.905 391.634L169.483 392.079L169.605 391.921ZM168.969 391.455L167.548 391.4L167.54 391.6L168.962 391.655L168.969 391.455ZM167.604 391.42L163.604 388.42L163.484 388.58L167.484 391.58L167.604 391.42ZM163.644 388.5V387.5H163.444V388.5H163.644ZM163.615 387.429L163.115 386.929L162.973 387.071L163.473 387.571L163.615 387.429ZM162.944 387V389H163.144V387H162.944ZM162.984 389.08L166.984 392.08L167.104 391.92L163.104 388.92L162.984 389.08ZM167.044 392.1H169.544V391.9H167.044V392.1ZM221.531 306.776L221.949 308.031L222.138 307.967L221.72 306.713L221.531 306.776ZM221.944 307V307.999H222.144V307H221.944ZM221.573 306.83L221.991 307.085L222.096 306.915L221.678 306.659L221.573 306.83ZM145.984 311.379L146.984 312.123L147.104 311.963L146.104 311.219L145.984 311.379ZM146.944 312.043V321H147.144V312.043H146.944ZM147.133 320.955L146.133 318.955L145.955 319.045L146.955 321.045L147.133 320.955ZM146.144 319V311.299H145.944V319H146.144ZM138.984 306.172L144.984 310.635L145.104 310.475L139.104 306.011L138.984 306.172ZM145.144 318V310.555H144.944V318H145.144ZM138.984 313.58L144.984 318.08L145.104 317.92L139.104 313.42L138.984 313.58ZM138.944 306.092V313.5H139.144V306.092H138.944ZM137.144 313.5V304.604H136.944V313.5H137.144ZM139.137 318.463L137.137 313.463L136.951 313.537L138.951 318.537L139.137 318.463ZM148.099 324.417L139.099 318.417L138.988 318.583L147.988 324.583L148.099 324.417ZM147.944 312.787V324.5H148.144V312.787H147.944ZM147.984 312.867L167.309 327.243L167.428 327.082L148.104 312.707L147.984 312.867ZM167.413 327.073L167.089 326.911L166.999 327.089L167.324 327.252L167.413 327.073ZM166.944 327V354.5H167.144V327H166.944ZM167.104 354.42L134.604 329.92L134.484 330.08L166.984 354.58L167.104 354.42ZM134.644 329.998L134.176 302.394L133.976 302.398L134.444 330.002L134.644 329.998ZM134.016 302.476L136.984 304.684L137.104 304.524L134.136 302.316L134.016 302.476ZM168.644 355.498L168.147 327.665L167.947 327.669L168.444 355.502L168.644 355.498ZM172.143 390.49L168.643 355.49L168.444 355.51L171.944 390.51L172.143 390.49ZM173.544 390.4H172.044V390.6H173.544V390.4ZM172.444 331.014L173.444 390.502L173.644 390.498L172.644 331.011L172.444 331.014ZM167.987 327.747L172.484 331.093L172.604 330.932L168.107 327.587L167.987 327.747ZM175.144 390.498L174.163 332.141L173.963 332.144L174.944 390.502L175.144 390.498ZM184.603 397.419L175.103 390.419L174.985 390.581L184.485 397.581L184.603 397.419ZM194.446 349.979L184.446 397.479L184.642 397.521L194.642 350.021L194.446 349.979ZM194.444 336.991V350H194.644V336.991H194.444ZM174.497 332.588C182.284 336.694 188.221 337.914 194.557 337.09L194.531 336.892C188.246 337.709 182.351 336.503 174.591 332.412L174.497 332.588ZM174.003 332.223L174.484 332.58L174.604 332.42L174.123 332.062L174.003 332.223ZM70.908 281.272L42.6038 259.92L42.4833 260.08L70.7876 281.432L70.908 281.272ZM42.6435 259.996L41.6435 234.996L41.4436 235.004L42.4436 260.004L42.6435 259.996ZM41.4854 235.081L51.9854 242.581L52.1017 242.419L41.6017 234.919L41.4854 235.081ZM52.0705 242.596L55.0968 241.749L55.0429 241.556L52.0166 242.404L52.0705 242.596ZM55.0378 241.558L54.0119 241.905L54.076 242.095L55.1019 241.747L55.0378 241.558ZM53.944 242V252.5H54.144V242H53.944ZM53.9469 252.524L54.9469 256.524L55.141 256.476L54.141 252.476L53.9469 252.524ZM54.9854 256.581L63.9854 263.081L64.1025 262.919L55.1025 256.419L54.9854 256.581ZM64.144 263V252H63.944V263H64.144ZM64.144 252V239.5H63.944V252H64.144ZM64.044 239.4H63.044V239.6H64.044V239.4ZM62.944 239.5V260.5H63.144V239.5H62.944ZM63.1405 260.474L62.1405 256.751L61.9474 256.803L62.9474 260.526L63.1405 260.474ZM62.144 256.777V239.7H61.944V256.777H62.144ZM62.0709 239.796L64.5709 239.096L64.517 238.904L62.017 239.604L62.0709 239.796ZM64.444 239L64.4435 252H64.6435L64.644 239L64.444 239ZM64.486 252.082L77.986 261.582L78.1011 261.418L64.6011 251.918L64.486 252.082ZM77.9835 261.58L77.984 261.58L78.104 261.42L78.1035 261.42L77.9835 261.58ZM77.944 261.5V265.5H78.144V261.5H77.944ZM77.9737 265.429L70.9685 272.343L71.109 272.486L78.1142 265.571L77.9737 265.429ZM71.1386 272.408L70.1414 255.994L69.9417 256.006L70.939 272.421L71.1386 272.408ZM70.0864 255.911L69.0888 255.411L68.9992 255.589L69.9968 256.089L70.0864 255.911ZM68.9441 255.506L69.9441 273.506L70.1438 273.494L69.1438 255.494L68.9441 255.506ZM69.9733 273.429L68.9733 274.429L69.1147 274.571L70.1147 273.571L69.9733 273.429ZM68.9577 274.551L70.643 277.426L70.8156 277.324L69.1302 274.449L68.9577 274.551ZM70.6293 277.375V280.549H70.8293V277.375H70.6293ZM70.6304 280.564L70.7489 281.367L70.9467 281.337L70.8282 280.535L70.6304 280.564ZM70.1177 273.568L71.1125 272.482L70.965 272.347L69.9702 273.432L70.1177 273.568ZM70.939 272.421L70.9441 272.506L71.1438 272.494L71.1386 272.408L70.939 272.421ZM70.9733 272.429L69.9733 273.429L70.1147 273.571L71.1147 272.571L70.9733 272.429ZM82.104 264.42L80.1099 262.924L79.9899 263.084L81.984 264.58L82.104 264.42ZM71.782 275.07L82.1152 264.57L81.9727 264.43L71.6394 274.93L71.782 275.07ZM81.602 281.919L71.7687 274.919L71.6527 275.081L81.486 282.081L81.602 281.919ZM85.9733 277.429L81.4733 281.929L81.6147 282.071L86.1147 277.571L85.9733 277.429ZM84.5338 266.225L85.9447 277.512L86.1432 277.488L84.7323 266.2L84.5338 266.225ZM79.9926 263.086L84.5757 266.295L84.6904 266.131L80.1073 262.923L79.9926 263.086ZM56.0709 241.476L61.162 240.051L61.1081 239.858L56.017 241.284L56.0709 241.476ZM56.144 252.5V241.38H55.944V252.5H56.144ZM61.1013 255.918L56.1013 252.418L55.9866 252.582L60.9866 256.082L61.1013 255.918ZM60.944 240V256H61.144V240H60.944ZM61.0903 239.865L60.9992 239.911L61.0887 240.089L61.1797 240.044L61.0903 239.865ZM196.563 336.766C200.442 336.018 204.547 334.564 209.369 332.593L209.294 332.407C204.475 334.377 200.384 335.826 196.525 336.569L196.563 336.766ZM196.644 345.5V336.667H196.444V345.5H196.644ZM209.508 340.407L196.508 345.407L196.58 345.593L209.58 340.593L209.508 340.407ZM209.232 332.503L209.444 340.503L209.644 340.497L209.431 332.497L209.232 332.503ZM3.64354 204V191.5H3.44354V204H3.64354ZM25.1032 219.92L3.60324 203.92L3.48384 204.08L24.9838 220.08L25.1032 219.92ZM52.1031 239.92L25.1031 219.92L24.984 220.08L51.984 240.08L52.1031 239.92ZM50.4441 225.51L51.9441 240.01L52.143 239.99L50.643 225.49L50.4441 225.51ZM3.48493 191.581L50.4849 225.581L50.6021 225.419L3.60215 191.419L3.48493 191.581ZM41.6416 285.48L29.6416 225.98L29.4455 226.02L41.4455 285.52L41.6416 285.48ZM44.6076 287.923L41.6076 285.423L41.4795 285.577L44.4795 288.077L44.6076 287.923ZM39.4449 258.517L44.4449 288.017L44.6421 287.983L39.6421 258.483L39.4449 258.517ZM38.4436 233.004L39.4436 258.504L39.6435 258.496L38.6435 232.996L38.4436 233.004ZM29.4822 226.079L38.4821 233.079L38.6049 232.921L29.6049 225.921L29.4822 226.079ZM66.6435 251V242H66.4435V251H66.6435ZM88.6011 266.418L66.6011 250.918L66.4859 251.082L88.4859 266.582L88.6011 266.418ZM88.4435 257.5V266.5H88.6435V257.5H88.4435ZM66.4859 242.082L88.4859 257.582L88.6011 257.418L66.6011 241.918L66.4859 242.082ZM435.001 232.41L418.001 240.41L418.087 240.59L435.086 232.59L435.001 232.41ZM438.444 218.002C438.521 222.159 438.52 225.273 438.066 227.597C437.613 229.914 436.711 231.432 434.994 232.413L435.093 232.587C436.876 231.568 437.801 229.99 438.262 227.635C438.721 225.286 438.721 222.15 438.644 217.998L438.444 218.002ZM419.086 227.091L438.586 218.091L438.502 217.909L419.002 226.909L419.086 227.091ZM418.144 240.507L419.144 227.007L418.944 226.993L417.944 240.493L418.144 240.507ZM198.502 392.409L186.502 397.909L186.586 398.091L198.586 392.591L198.502 392.409ZM208.446 343.48L198.446 392.48L198.642 392.52L208.642 343.52L208.446 343.48ZM196.582 348.592L208.582 343.592L208.505 343.408L196.505 348.408L196.582 348.592ZM186.642 398.02L196.642 348.52L196.446 348.48L186.446 397.98L186.642 398.02ZM243 356.91L204.103 375.91L204.19 376.09L243.088 357.09L243 356.91ZM249.948 333.471L242.948 356.971L243.14 357.029L250.14 333.529L249.948 333.471ZM211.583 350.092L250.083 333.592L250.005 333.408L211.505 349.908L211.583 350.092ZM204.243 376.027L211.64 350.027L211.448 349.973L204.05 375.973L204.243 376.027ZM396.503 302.409L387.503 306.409L387.585 306.591L396.585 302.591L396.503 302.409ZM411.449 255.969L396.449 302.469L396.639 302.531L411.639 256.031L411.449 255.969ZM403.087 260.09L411.587 256.09L411.501 255.91L403.001 259.91L403.087 260.09ZM402.644 267.507L403.144 260.007L402.944 259.993L402.444 267.493L402.644 267.507ZM387.637 306.536L402.637 267.536L402.451 267.464L387.451 306.464L387.637 306.536ZM412.501 252.91L403.001 257.41L403.087 257.59L412.587 253.09L412.501 252.91ZM412.444 242.5V253H412.644V242.5H412.444ZM404.495 238.087L412.495 242.587L412.593 242.413L404.593 237.913L404.495 238.087ZM403.144 257.508L404.644 238.008L404.444 237.992L402.944 257.492L403.144 257.508ZM376.493 301.586L384.993 306.586L385.095 306.414L376.595 301.414L376.493 301.586ZM389.501 295.15L376.501 301.41L376.587 301.59L389.587 295.33L389.501 295.15ZM385.137 306.537L389.637 295.277L389.451 295.203L384.951 306.463L385.137 306.537ZM390.638 292.459L399.138 268.533L398.95 268.467L390.45 292.392L390.638 292.459ZM357.586 307.591L390.586 292.516L390.502 292.334L357.502 307.409L357.586 307.591ZM366.45 282.966L357.45 307.466L357.638 307.534L366.638 283.034L366.45 282.966ZM399.003 268.409L366.503 282.909L366.585 283.091L399.085 268.591L399.003 268.409ZM354.586 311.091L373.086 302.591L373.002 302.409L354.502 310.909L354.586 311.091ZM353.641 315.024L354.641 311.024L354.447 310.976L353.447 314.976L353.641 315.024ZM376.002 304.409L353.502 314.909L353.586 315.091L376.086 304.591L376.002 304.409ZM372.988 302.583L375.988 304.583L376.099 304.417L373.099 302.417L372.988 302.583ZM244.496 358.912L233.496 364.912L233.592 365.088L244.592 359.088L244.496 358.912ZM241.641 371.024L244.641 359.024L244.447 358.976L241.447 370.976L241.641 371.024ZM233.484 365.08L241.484 371.08L241.604 370.92L233.604 364.92L233.484 365.08ZM273.502 315.409L255.002 323.909L255.086 324.091L273.586 315.591L273.502 315.409ZM265.141 350.524L273.641 315.524L273.447 315.476L264.947 350.476L265.141 350.524ZM335.504 319.408L265.004 350.408L265.084 350.592L335.584 319.592L335.504 319.408ZM345.448 284.972L335.448 319.472L335.64 319.528L345.64 285.028L345.448 284.972ZM361.504 277.908L345.504 284.908L345.584 285.092L361.584 278.092L361.504 277.908ZM347.139 324.03L361.639 278.03L361.449 277.97L346.949 323.97L347.139 324.03ZM243.586 371.591L347.086 324.091L347.002 323.909L243.502 371.409L243.586 371.591ZM254.947 323.976L243.447 371.476L243.641 371.524L255.141 324.024L254.947 323.976ZM331.584 318.408L315.584 311.408L315.504 311.592L331.504 318.592L331.584 318.408ZM268.585 346.591L331.585 318.591L331.503 318.409L268.503 346.409L268.585 346.591ZM273.448 329.971L268.448 346.471L268.64 346.529L273.64 330.029L273.448 329.971ZM315.504 311.408L273.504 329.908L273.584 330.092L315.584 311.592L315.504 311.408ZM60.9478 257.027L61.9478 260.527L62.1401 260.473L61.1401 256.973L60.9478 257.027ZM55.9925 254.086L60.9925 257.086L61.0954 256.914L56.0954 253.914L55.9925 254.086ZM57.1388 256.968L56.1388 253.968L55.9491 254.032L56.9491 257.032L57.1388 256.968ZM62.1013 260.418L57.1013 256.918L56.9866 257.082L61.9866 260.582L62.1013 260.418ZM75.1432 300.987L72.5138 280.237L72.3154 280.263L74.9448 301.013L75.1432 300.987ZM77.044 300.9H75.044V301.1H77.044V300.9ZM75.9442 287.007L76.9442 301.007L77.1437 300.993L76.1437 286.993L75.9442 287.007ZM72.3266 280.297L75.9559 287.047L76.132 286.953L72.5027 280.203L72.3266 280.297ZM82.4574 283.05L87.9574 292.55L88.1305 292.45L82.6305 282.95L82.4574 283.05ZM86.4733 278.929L82.4733 282.929L82.6147 283.071L86.6147 279.071L86.4733 278.929ZM88.1433 292.489L86.6433 278.989L86.4446 279.011L87.9446 292.511L88.1433 292.489ZM80.4582 283.551L86.4582 293.551L86.6297 293.449L80.6297 283.449L80.4582 283.551ZM72.484 277.58L80.484 283.58L80.604 283.42L72.604 277.42L72.484 277.58ZM78.6308 287.95L72.6308 277.45L72.4571 277.55L78.4571 288.05L78.6308 287.95ZM86.6006 293.418L78.6006 287.918L78.4873 288.082L86.4873 293.582L86.6006 293.418ZM131.142 344.483L127.642 324.483L127.445 324.517L130.945 344.517L131.142 344.483ZM133.089 345.411L131.089 344.411L130.999 344.589L132.999 345.589L133.089 345.411ZM131.944 317.504L132.944 345.504L133.144 345.496L132.144 317.496L131.944 317.504ZM127.946 298.521L131.946 317.521L132.142 317.479L128.142 298.479L127.946 298.521ZM118.62 309.565L128.12 298.565L127.968 298.435L118.468 309.435L118.62 309.565ZM127.63 324.449L118.63 309.449L118.458 309.551L127.458 324.551L127.63 324.449ZM116.984 290.58L126.984 298.08L127.104 297.92L117.104 290.42L116.984 290.58ZM106.616 301.569L117.116 290.569L116.972 290.431L106.472 301.431L106.616 301.569ZM117.6 308.917L106.6 301.417L106.488 301.583L117.488 309.083L117.6 308.917ZM126.968 297.935L117.468 308.935L117.62 309.065L127.12 298.065L126.968 297.935ZM117.458 311.051L123.958 322.051L124.13 321.949L117.63 310.949L117.458 311.051ZM108.485 304.581L117.485 311.081L117.603 310.919L108.603 304.419L108.485 304.581ZM114.631 314.95L108.631 304.45L108.457 304.55L114.457 315.05L114.631 314.95ZM124.103 321.919L114.603 314.919L114.485 315.081L123.985 322.081L124.103 321.919ZM132.099 301.417L130.599 300.417L130.488 300.583L131.988 301.583L132.099 301.417ZM132.144 308V301.5H131.944V308H132.144ZM130.446 300.52L131.946 308.02L132.142 307.98L130.642 300.48L130.446 300.52ZM146.103 321.919L140.603 317.919L140.485 318.081L145.985 322.081L146.103 321.919ZM144.951 319.537L145.951 322.037L146.137 321.963L145.137 319.463L144.951 319.537ZM139.485 315.581L144.985 319.581L145.103 319.419L139.603 315.419L139.485 315.581ZM140.637 317.963L139.637 315.463L139.451 315.537L140.451 318.037L140.637 317.963ZM216.581 300.593L250.581 287.093L250.507 286.907L216.507 300.407L216.581 300.593ZM17.1064 193.922L4.60642 183.922L4.48148 184.078L16.9815 194.078L17.1064 193.922ZM405.576 223.095L408.576 222.095L408.512 221.905L405.512 222.905L405.576 223.095ZM411.084 221.092L436.584 210.092L436.504 209.908L411.004 220.908L411.084 221.092ZM436.625 209.942L435.375 208.192L435.212 208.308L436.463 210.058L436.625 209.942ZM369.083 238.592L402.583 224.335L402.505 224.151L369.005 238.408L369.083 238.592ZM346.582 247.592L363.582 240.592L363.506 240.408L346.506 247.408L346.582 247.592ZM332.082 253.592L344.582 248.42L344.506 248.235L332.006 253.408L332.082 253.592ZM318.084 259.592L329.584 254.592L329.504 254.408L318.004 259.408L318.084 259.592ZM277.582 276.092L316.082 260.092L316.006 259.908L277.506 275.908L277.582 276.092ZM255.581 285.093L274.581 277.593L274.507 277.407L255.507 284.907L255.581 285.093ZM327.001 336.324L319.501 339.91L319.587 340.09L327.087 336.504L327.001 336.324ZM329.999 334.911L327.999 335.911L328.089 336.089L330.089 335.089L329.999 334.911ZM63.6051 308.421L57.7349 303.883L57.6126 304.041L63.4828 308.579L63.6051 308.421ZM163.484 387.58L168.906 391.635L169.025 391.475L163.604 387.42L163.484 387.58Z" fill="#7F77E0"/>
<path d="M119.044 88L105.544 80L240.044 39.5L340.044 88L319.044 111.5L290.5 121L220.5 82L146.5 104.5L119.044 88Z" fill="#1A1222"/>
<path fill-rule="evenodd" clip-rule="evenodd" d="M239.544 41L307.044 73.5L308.044 71.7313L240.044 39L138.431 69L139.544 71.3922L239.544 41ZM316.544 110.5L219.544 59.5L120.544 88.5L114.544 88L219.544 56.5L322.044 111L316.544 110.5Z" fill="#7F77E0"/>
<path d="M307.044 73.5L306.827 73.9505L307.249 74.1536L307.479 73.7461L307.044 73.5ZM239.544 41L239.761 40.5495L239.585 40.4649L239.399 40.5216L239.544 41ZM308.044 71.7313L308.479 71.9774L308.742 71.5125L308.261 71.2808L308.044 71.7313ZM240.044 39L240.261 38.5495L240.087 38.4659L239.902 38.5205L240.044 39ZM138.431 69L138.29 68.5205L137.733 68.6848L137.978 69.2109L138.431 69ZM139.544 71.3922L139.091 71.6031L139.274 71.9968L139.689 71.8706L139.544 71.3922ZM219.544 59.5L219.777 59.0574L219.598 58.9633L219.403 59.0202L219.544 59.5ZM316.544 110.5L316.311 110.943L316.399 110.989L316.499 110.998L316.544 110.5ZM120.544 88.5L120.502 88.9983L120.595 89.006L120.685 88.9798L120.544 88.5ZM114.544 88L114.4 87.5211L114.502 88.4983L114.544 88ZM219.544 56.5L219.779 56.0585L219.597 55.962L219.4 56.0211L219.544 56.5ZM322.044 111L321.999 111.498L322.279 110.559L322.044 111ZM307.261 73.0495L239.761 40.5495L239.327 41.4505L306.827 73.9505L307.261 73.0495ZM307.609 71.4853L306.609 73.2539L307.479 73.7461L308.479 71.9774L307.609 71.4853ZM239.827 39.4505L307.827 72.1819L308.261 71.2808L240.261 38.5495L239.827 39.4505ZM138.573 69.4795L240.186 39.4795L239.902 38.5205L138.29 68.5205L138.573 69.4795ZM139.997 71.1813L138.884 68.7891L137.978 69.2109L139.091 71.6031L139.997 71.1813ZM239.399 40.5216L139.399 70.9138L139.689 71.8706L239.689 41.4784L239.399 40.5216ZM219.311 59.9426L316.311 110.943L316.777 110.057L219.777 59.0574L219.311 59.9426ZM120.685 88.9798L219.685 59.9798L219.403 59.0202L120.403 88.0202L120.685 88.9798ZM114.502 88.4983L120.502 88.9983L120.585 88.0017L114.585 87.5017L114.502 88.4983ZM219.4 56.0211L114.4 87.5211L114.688 88.4789L219.688 56.9789L219.4 56.0211ZM322.279 110.559L219.779 56.0585L219.309 56.9415L321.809 111.441L322.279 110.559ZM316.499 110.998L321.999 111.498L322.089 110.502L316.589 110.002L316.499 110.998Z" fill="#7F77E0"/>
<path d="M315.544 112.5L305.544 104.5V101L259.044 77.5V11L245.044 4L220.044 11L201.044 1.5L179.044 8V23L174.044 24.5V68.5L131.544 81.5V86.5L121.044 92L217.544 147L315.544 112.5Z" fill="#1A1222"/>
<path fill-rule="evenodd" clip-rule="evenodd" d="M233.544 110L213.544 99.5L188.544 107.5L174.044 99.5L173.544 24L178.544 22.5V7.5L201.044 1L220.544 10.5L245.044 3.5L259.544 10.5V77.5V84.5L255.544 85.5V103L233.544 110ZM175.544 27L176.544 98L187.544 104L186.544 31.5L175.544 27ZM188.544 32L189.544 105L212.544 97.5L211.544 25.5L188.544 32ZM214.544 98L232.544 108L233.044 34.5L214.544 25.8634V98ZM234.544 107.5L253.544 101.5V29L235.044 35L234.544 107.5ZM255.544 83.5L257.544 83V12.1927L238.044 18L255.544 26.5V83.5ZM232.044 17.5L251.544 27.5L234.044 33L212.544 22.5L187.544 30L176.544 25.5L202.544 17.5L183.044 8.5L200.544 3.5L220.044 13L245.044 6L254.544 10.5L232.044 17.5ZM181.044 9.5V21.5L196.044 17L181.044 9.5ZM217.544 129.5L133.044 82L173.544 70V68L131.044 81V86L120.044 92L217.544 148L316.544 112.5L306.044 104.5V101L260.044 77V79.5L302.544 101L217.544 129.5ZM218.044 130.503L304.044 102V105L218.044 133.5V130.503ZM217.044 130.5L132.044 83V85.5L217.044 133.5V130.5ZM217.044 134.5L131.544 87L124.044 91.5L217.044 143.5V134.5ZM217.044 145L123.044 92L122.044 92.5L217.044 146.75V145ZM305.044 106L218.044 134.5V143.5L312.544 111.5L305.044 106ZM314.044 112.5L218.044 146.75V145L313.044 112L314.044 112.5Z" fill="#7F77E0"/>
<path d="M213.544 99.5L213.59 99.4115L213.553 99.392L213.513 99.4048L213.544 99.5ZM233.544 110L233.497 110.089L233.534 110.108L233.574 110.095L233.544 110ZM188.544 107.5L188.496 107.588L188.533 107.608L188.574 107.595L188.544 107.5ZM174.044 99.5L173.944 99.5007L173.944 99.5592L173.996 99.5876L174.044 99.5ZM173.544 24L173.515 23.9042L173.443 23.9257L173.444 24.0007L173.544 24ZM178.544 22.5L178.573 22.5958L178.644 22.5744V22.5H178.544ZM178.544 7.5L178.516 7.40393L178.444 7.4248V7.5H178.544ZM201.044 1L201.088 0.910101L201.053 0.89325L201.016 0.903929L201.044 1ZM220.544 10.5L220.5 10.5899L220.535 10.6067L220.571 10.5962L220.544 10.5ZM245.044 3.5L245.087 3.40994L245.053 3.39338L245.016 3.40385L245.044 3.5ZM259.544 10.5H259.644V10.4372L259.587 10.4099L259.544 10.5ZM259.544 84.5L259.568 84.597L259.644 84.5781V84.5H259.544ZM255.544 85.5L255.52 85.403L255.444 85.4219V85.5H255.544ZM255.544 103L255.574 103.095L255.644 103.073V103H255.544ZM176.544 98L176.444 98.0014L176.445 98.0598L176.496 98.0878L176.544 98ZM175.544 27L175.582 26.9074L175.442 26.8502L175.444 27.0014L175.544 27ZM187.544 104L187.496 104.088L187.646 104.17L187.644 103.999L187.544 104ZM186.544 31.5L186.644 31.4986L186.643 31.4325L186.582 31.4074L186.544 31.5ZM189.544 105L189.444 105.001L189.446 105.137L189.575 105.095L189.544 105ZM188.544 32L188.517 31.9038L188.443 31.9246L188.444 32.0014L188.544 32ZM212.544 97.5L212.575 97.5951L212.645 97.5722L212.644 97.4986L212.544 97.5ZM211.544 25.5L211.644 25.4986L211.642 25.3683L211.517 25.4038L211.544 25.5ZM232.544 108L232.495 108.087L232.643 108.169L232.644 108.001L232.544 108ZM214.544 98H214.444V98.0588L214.495 98.0874L214.544 98ZM233.044 34.5L233.144 34.5007L233.144 34.4365L233.086 34.4094L233.044 34.5ZM214.544 25.8634L214.586 25.7727L214.444 25.7063V25.8634H214.544ZM253.544 101.5L253.574 101.595L253.644 101.573V101.5H253.544ZM234.544 107.5L234.444 107.499L234.443 107.637L234.574 107.595L234.544 107.5ZM253.544 29H253.644V28.8624L253.513 28.9049L253.544 29ZM235.044 35L235.013 34.9049L234.944 34.9271L234.944 34.9993L235.044 35ZM257.544 83L257.568 83.097L257.644 83.0781V83H257.544ZM255.544 83.5H255.444V83.6281L255.568 83.597L255.544 83.5ZM257.544 12.1927H257.644V12.0586L257.515 12.0969L257.544 12.1927ZM238.044 18L238.015 17.9042L237.769 17.9776L238 18.09L238.044 18ZM255.544 26.5H255.644V26.4374L255.588 26.41L255.544 26.5ZM251.544 27.5L251.574 27.5954L251.807 27.5223L251.59 27.411L251.544 27.5ZM232.044 17.5L232.014 17.4045L231.78 17.4773L231.998 17.589L232.044 17.5ZM234.044 33L234 33.0899L234.036 33.1074L234.074 33.0954L234.044 33ZM212.544 22.5L212.588 22.4101L212.553 22.393L212.515 22.4042L212.544 22.5ZM187.544 30L187.506 30.0926L187.539 30.1059L187.573 30.0958L187.544 30ZM176.544 25.5L176.515 25.4044L176.247 25.4867L176.506 25.5926L176.544 25.5ZM202.544 17.5L202.573 17.5956L202.823 17.5187L202.586 17.4092L202.544 17.5ZM183.044 8.5L183.016 8.40385L182.757 8.47787L183.002 8.5908L183.044 8.5ZM200.544 3.5L200.588 3.4101L200.553 3.39332L200.516 3.40385L200.544 3.5ZM220.044 13L220 13.0899L220.034 13.1065L220.071 13.0963L220.044 13ZM245.044 6L245.087 5.90963L245.053 5.89363L245.017 5.9037L245.044 6ZM254.544 10.5L254.574 10.5955L254.818 10.5193L254.587 10.4096L254.544 10.5ZM181.044 21.5H180.944V21.6344L181.073 21.5958L181.044 21.5ZM181.044 9.5L181.089 9.41056L180.944 9.3382V9.5H181.044ZM196.044 17L196.073 17.0958L196.314 17.0233L196.089 16.9106L196.044 17ZM133.044 82L133.016 81.9041L132.789 81.9713L132.995 82.0872L133.044 82ZM217.544 129.5L217.495 129.587L217.534 129.609L217.576 129.595L217.544 129.5ZM173.544 70L173.572 70.0959L173.644 70.0747V70H173.544ZM173.544 68H173.644V67.8648L173.515 67.9044L173.544 68ZM131.044 81L131.015 80.9044L130.944 80.926V81H131.044ZM131.044 86L131.092 86.0878L131.144 86.0594V86H131.044ZM120.044 92L119.996 91.9122L119.839 91.9977L119.994 92.0867L120.044 92ZM217.544 148L217.494 148.087L217.534 148.11L217.578 148.094L217.544 148ZM316.544 112.5L316.578 112.594L316.751 112.532L316.605 112.42L316.544 112.5ZM306.044 104.5H305.944V104.55L305.983 104.58L306.044 104.5ZM306.044 101H306.144V100.939L306.09 100.911L306.044 101ZM260.044 77L260.09 76.9113L259.944 76.835V77H260.044ZM260.044 79.5H259.944V79.5615L259.999 79.5892L260.044 79.5ZM302.544 101L302.576 101.095L302.803 101.019L302.589 100.911L302.544 101ZM304.044 102H304.144V101.862L304.012 101.905L304.044 102ZM218.044 130.503L218.012 130.408L217.944 130.431V130.503H218.044ZM304.044 105L304.075 105.095L304.144 105.072V105H304.044ZM218.044 133.5H217.944V133.638L218.075 133.595L218.044 133.5ZM132.044 83L132.093 82.9127L131.944 82.8296V83H132.044ZM217.044 130.5H217.144V130.441L217.093 130.413L217.044 130.5ZM132.044 85.5H131.944V85.5584L131.995 85.5871L132.044 85.5ZM217.044 133.5L216.995 133.587L217.144 133.671V133.5H217.044ZM131.544 87L131.593 86.9126L131.542 86.8845L131.492 86.9143L131.544 87ZM217.044 134.5H217.144V134.441L217.093 134.413L217.044 134.5ZM124.044 91.5L123.992 91.4143L123.844 91.5031L123.995 91.5873L124.044 91.5ZM217.044 143.5L216.995 143.587L217.144 143.67V143.5H217.044ZM123.044 92L123.093 91.9129L123.047 91.8868L122.999 91.9106L123.044 92ZM217.044 145H217.144V144.942L217.093 144.913L217.044 145ZM122.044 92.5L121.999 92.4106L121.832 92.4941L121.994 92.5868L122.044 92.5ZM217.044 146.75L216.994 146.837L217.144 146.922V146.75H217.044ZM218.044 134.5L218.013 134.405L217.944 134.428V134.5H218.044ZM305.044 106L305.103 105.919L305.062 105.889L305.013 105.905L305.044 106ZM218.044 143.5H217.944V143.639L218.076 143.595L218.044 143.5ZM312.544 111.5L312.576 111.595L312.758 111.533L312.603 111.419L312.544 111.5ZM218.044 146.75H217.944V146.892L218.078 146.844L218.044 146.75ZM314.044 112.5L314.078 112.594L314.298 112.515L314.089 112.411L314.044 112.5ZM218.044 145L218.011 144.906L217.944 144.929V145H218.044ZM313.044 112L313.089 111.911L313.051 111.892L313.011 111.906L313.044 112ZM213.497 99.5885L233.497 110.089L233.59 109.911L213.59 99.4115L213.497 99.5885ZM188.574 107.595L213.574 99.5952L213.513 99.4048L188.513 107.405L188.574 107.595ZM173.996 99.5876L188.496 107.588L188.592 107.412L174.092 99.4124L173.996 99.5876ZM173.444 24.0007L173.944 99.5007L174.144 99.4993L173.644 23.9993L173.444 24.0007ZM178.515 22.4042L173.515 23.9042L173.573 24.0958L178.573 22.5958L178.515 22.4042ZM178.444 7.5V22.5H178.644V7.5H178.444ZM201.016 0.903929L178.516 7.40393L178.572 7.59607L201.072 1.09607L201.016 0.903929ZM220.588 10.4101L201.088 0.910101L201 1.0899L220.5 10.5899L220.588 10.4101ZM245.016 3.40385L220.516 10.4038L220.571 10.5962L245.071 3.59615L245.016 3.40385ZM259.587 10.4099L245.087 3.40994L245 3.59006L259.5 10.5901L259.587 10.4099ZM259.644 77.5V10.5H259.444V77.5H259.644ZM259.644 84.5V77.5H259.444V84.5H259.644ZM255.568 85.597L259.568 84.597L259.52 84.403L255.52 85.403L255.568 85.597ZM255.644 103V85.5H255.444V103H255.644ZM233.574 110.095L255.574 103.095L255.514 102.905L233.514 109.905L233.574 110.095ZM176.644 97.9986L175.644 26.9986L175.444 27.0014L176.444 98.0014L176.644 97.9986ZM187.592 103.912L176.592 97.9122L176.496 98.0878L187.496 104.088L187.592 103.912ZM186.444 31.5014L187.444 104.001L187.644 103.999L186.644 31.4986L186.444 31.5014ZM175.506 27.0926L186.506 31.5926L186.582 31.4074L175.582 26.9074L175.506 27.0926ZM189.644 104.999L188.644 31.9986L188.444 32.0014L189.444 105.001L189.644 104.999ZM212.513 97.4049L189.513 104.905L189.575 105.095L212.575 97.5951L212.513 97.4049ZM211.444 25.5014L212.444 97.5014L212.644 97.4986L211.644 25.4986L211.444 25.5014ZM188.571 32.0962L211.571 25.5962L211.517 25.4038L188.517 31.9038L188.571 32.0962ZM232.593 107.913L214.593 97.9126L214.495 98.0874L232.495 108.087L232.593 107.913ZM232.944 34.4993L232.444 107.999L232.644 108.001L233.144 34.5007L232.944 34.4993ZM214.502 25.954L233.002 34.5906L233.086 34.4094L214.586 25.7727L214.502 25.954ZM214.644 98V25.8634H214.444V98H214.644ZM253.514 101.405L234.514 107.405L234.574 107.595L253.574 101.595L253.514 101.405ZM253.444 29V101.5H253.644V29H253.444ZM235.075 35.0951L253.575 29.0951L253.513 28.9049L235.013 34.9049L235.075 35.0951ZM234.644 107.501L235.144 35.0007L234.944 34.9993L234.444 107.499L234.644 107.501ZM257.52 82.903L255.52 83.403L255.568 83.597L257.568 83.097L257.52 82.903ZM257.444 12.1927V83H257.644V12.1927H257.444ZM238.072 18.0958L257.572 12.2886L257.515 12.0969L238.015 17.9042L238.072 18.0958ZM255.588 26.41L238.088 17.91L238 18.09L255.5 26.59L255.588 26.41ZM255.644 83.5V26.5H255.444V83.5H255.644ZM251.59 27.411L232.09 17.411L231.998 17.589L251.498 27.589L251.59 27.411ZM234.074 33.0954L251.574 27.5954L251.514 27.4046L234.014 32.9046L234.074 33.0954ZM212.5 22.5899L234 33.0899L234.088 32.9101L212.588 22.4101L212.5 22.5899ZM187.573 30.0958L212.573 22.5958L212.515 22.4042L187.515 29.9042L187.573 30.0958ZM176.506 25.5926L187.506 30.0926L187.582 29.9074L176.582 25.4074L176.506 25.5926ZM202.515 17.4044L176.515 25.4044L176.573 25.5956L202.573 17.5956L202.515 17.4044ZM183.002 8.5908L202.502 17.5908L202.586 17.4092L183.086 8.4092L183.002 8.5908ZM200.516 3.40385L183.016 8.40385L183.071 8.59615L200.571 3.59615L200.516 3.40385ZM220.088 12.9101L200.588 3.4101L200.5 3.5899L220 13.0899L220.088 12.9101ZM245.017 5.9037L220.017 12.9037L220.071 13.0963L245.071 6.0963L245.017 5.9037ZM254.587 10.4096L245.087 5.90963L245.001 6.09037L254.501 10.5904L254.587 10.4096ZM232.074 17.5955L254.574 10.5955L254.514 10.4045L232.014 17.4045L232.074 17.5955ZM181.144 21.5V9.5H180.944V21.5H181.144ZM196.015 16.9042L181.015 21.4042L181.073 21.5958L196.073 17.0958L196.015 16.9042ZM180.999 9.58944L195.999 17.0894L196.089 16.9106L181.089 9.41056L180.999 9.58944ZM132.995 82.0872L217.495 129.587L217.593 129.413L133.093 81.9128L132.995 82.0872ZM173.516 69.9041L133.016 81.9041L133.072 82.0959L173.572 70.0959L173.516 69.9041ZM173.444 68V70H173.644V68H173.444ZM131.073 81.0956L173.573 68.0956L173.515 67.9044L131.015 80.9044L131.073 81.0956ZM131.144 86V81H130.944V86H131.144ZM120.092 92.0878L131.092 86.0878L130.996 85.9122L119.996 91.9122L120.092 92.0878ZM217.594 147.913L120.094 91.9133L119.994 92.0867L217.494 148.087L217.594 147.913ZM316.51 112.406L217.51 147.906L217.578 148.094L316.578 112.594L316.51 112.406ZM305.983 104.58L316.483 112.58L316.605 112.42L306.105 104.42L305.983 104.58ZM305.944 101V104.5H306.144V101H305.944ZM259.998 77.0887L305.998 101.089L306.09 100.911L260.09 76.9113L259.998 77.0887ZM260.144 79.5V77H259.944V79.5H260.144ZM302.589 100.911L260.089 79.4108L259.999 79.5892L302.499 101.089L302.589 100.911ZM217.576 129.595L302.576 101.095L302.512 100.905L217.512 129.405L217.576 129.595ZM304.012 101.905L218.012 130.408L218.075 130.598L304.075 102.095L304.012 101.905ZM304.144 105V102H303.944V105H304.144ZM218.075 133.595L304.075 105.095L304.012 104.905L218.012 133.405L218.075 133.595ZM217.944 130.503V133.5H218.144V130.503H217.944ZM131.995 83.0873L216.995 130.587L217.093 130.413L132.093 82.9127L131.995 83.0873ZM132.144 85.5V83H131.944V85.5H132.144ZM217.093 133.413L132.093 85.4129L131.995 85.5871L216.995 133.587L217.093 133.413ZM216.944 130.5V133.5H217.144V130.5H216.944ZM131.495 87.0874L216.995 134.587L217.093 134.413L131.593 86.9126L131.495 87.0874ZM124.095 91.5857L131.595 87.0857L131.492 86.9143L123.992 91.4143L124.095 91.5857ZM217.093 143.413L124.093 91.4127L123.995 91.5873L216.995 143.587L217.093 143.413ZM216.944 134.5V143.5H217.144V134.5H216.944ZM122.995 92.0871L216.995 145.087L217.093 144.913L123.093 91.9129L122.995 92.0871ZM122.089 92.5894L123.089 92.0894L122.999 91.9106L121.999 92.4106L122.089 92.5894ZM217.094 146.663L122.094 92.4132L121.994 92.5868L216.994 146.837L217.094 146.663ZM216.944 145V146.75H217.144V145H216.944ZM218.075 134.595L305.075 106.095L305.013 105.905L218.013 134.405L218.075 134.595ZM218.144 143.5V134.5H217.944V143.5H218.144ZM312.512 111.405L218.012 143.405L218.076 143.595L312.576 111.595L312.512 111.405ZM304.985 106.081L312.485 111.581L312.603 111.419L305.103 105.919L304.985 106.081ZM218.078 146.844L314.078 112.594L314.01 112.406L218.01 146.656L218.078 146.844ZM217.944 145V146.75H218.144V145H217.944ZM313.011 111.906L218.011 144.906L218.077 145.094L313.077 112.094L313.011 111.906ZM314.089 112.411L313.089 111.911L312.999 112.089L313.999 112.589L314.089 112.411Z" fill="#7F77E0"/>
<path d="M8.04395 183.5L186.544 311L436.044 209.5L420.044 181L396.544 168.5L386.544 114.5L379.044 107.5L366.044 101L331.544 85L319.044 111L218.044 145L183.544 126L180.044 127L146.044 107L147.544 104L106.044 80L83.0439 87L54.5439 151L27.5439 158.5L8.04395 183.5Z" fill="#1A1222"/>
<path d="M218.044 144L316.544 110.5L313.313 108.801L313.581 106.5L322.044 111L218.044 147L184.044 127.5L181.044 129L142.044 106.5L145.044 105L114.544 88L125.544 84.7L127.044 86.596L120.544 88.5L149.544 105L147.044 106.5L181.044 126L184.044 124.5L218.044 144Z" fill="#7F77E0"/>
<path fill-rule="evenodd" clip-rule="evenodd" d="M186.044 313.5L436.544 210.5L422.544 180.5L419.544 178.5L397.544 167L388.544 117.5C387.526 111.9 383.12 107.833 381.044 106.5L374.544 106L369.044 106.5L212.544 161.5L166.044 134C168.839 119 148.044 109.962 125.544 110.5L86.5439 87.5L139.544 71.3922L138.431 69L82.5439 85.5L54.0439 148.5L26.0439 157.5L8.04395 180L4.04395 185L8.71673 188.299L186.044 313.5ZM192.044 271.5L169.044 254.5L211.544 163L199.044 155.5L156.544 247.5L124.044 225C117.528 232.433 113.881 235.413 106.044 241L82.5439 225C82.6252 216.236 83.2207 210.753 84.0259 203.339C84.1906 201.822 84.3642 200.224 84.5439 198.5L55.5439 178.5L93.0439 94L83.5439 88.5L46.0439 172.5L27.0439 160L8.04395 184L185.044 310.5L192.044 271.5ZM358.044 197L360.544 206.5L420.544 182L433.544 209L187.044 311L194.044 272L256.044 247.5L232.544 156.5L338.544 119.5L358.044 197ZM382.544 186V172.779L395.044 167.5L387.044 119.5C386.044 114.5 383.044 109 377.544 108.5H374.544L369.544 109L341.044 118.5L360.044 195L382.544 186ZM253.044 246.5L245.044 241.5L229.525 247.5L190.044 263.5L177.044 254L172.544 255L193.044 269.5L253.044 246.5ZM418.544 180.5L362.044 203L360.544 197L400.544 180.5L387.044 173L396.044 169L418.544 180.5ZM384.544 185L396.044 180.5L384.544 174V185ZM231.544 244.5L232.044 162.5L253.044 244.5L245.044 239.5L231.544 244.5ZM190.544 261L177.044 251.5L171.544 253L213.544 163L230.044 157.5L229.525 245L190.544 261ZM165.544 136L197.044 154.5L171.044 211L166.044 207.5L165.544 136ZM165.544 209L170.544 212.5L155.544 244L126.544 224.5C146.475 224.13 154.865 220.562 165.544 209ZM29.5439 159L44.5439 169L45.5439 166.5L37.0439 161L49.0439 157.5L52.0439 152L29.5439 159ZM42.0439 161.5L46.5439 164.5L48.5439 159.5L42.0439 161.5ZM58.5439 176.5L94.0439 97.5L96.5439 164L58.5439 176.5ZM98.5439 164L95.5439 95L124.544 112.5L126.544 182.5L98.5439 164ZM59.5439 179L97.0439 166L125.544 184C113.044 181 91.0439 190 85.5439 196.5L59.5439 179ZM105.544 238L85.0439 224C85.0358 221.881 85.0463 219.957 85.0783 218.147C92.3455 209.465 96.5439 208.5 96.5439 208.5C96.5439 208.5 111.225 218.056 120.952 224.5C115.736 230.601 112.016 234.298 105.544 238ZM129.044 186C110.044 183 93.0439 192.5 86.5439 198C86.4499 198.83 86.3598 199.616 86.2737 200.367C85.6168 206.1 85.1944 209.786 85.0439 215C88.9599 209.5 93.0439 207.5 97.0439 206L106.544 212L115.544 210.5V200.5C126.044 199.5 150.978 199.664 161.978 209.5C162.57 208.966 162.684 208.852 163.013 208.525C163.142 208.396 163.305 208.234 163.544 208L163.044 133.5C168.044 116 135.044 112 127.044 112.5L129.044 186ZM160.044 211C148.847 202.376 132.863 202.445 121.837 202.493C121.046 202.497 120.28 202.5 119.544 202.5L145.2 219.671C151.212 217.787 155.344 214.956 160.044 211ZM122.544 223L109.044 214L116.044 212.5L131.315 222.461C128.579 222.738 125.921 222.881 122.544 223ZM134.544 222.105L117.544 210.5V204L142.403 220.5C139.826 221.212 137.536 221.714 134.544 222.105Z" fill="#7F77E0"/>
<path d="M381.044 106.5C378.426 105.43 374.044 103.5 374.044 103.5L308.044 71.7313L307.044 73.5L374.544 106L381.044 106.5Z" fill="#7F77E0"/>
<path d="M381.044 106.5C378.426 105.43 374.044 103.5 374.044 103.5L308.044 71.7313L307.044 73.5L374.544 106M381.044 106.5L374.544 106M381.044 106.5C383.12 107.833 387.526 111.9 388.544 117.5L397.544 167L419.544 178.5L422.544 180.5L436.544 210.5L186.044 313.5L8.71673 188.299L4.04395 185L8.04395 180L26.0439 157.5L54.0439 148.5L82.5439 85.5L138.431 69L139.544 71.3922L86.5439 87.5L125.544 110.5C148.044 109.962 168.839 119 166.044 134L212.544 161.5L369.044 106.5L374.544 106M192.044 271.5L169.044 254.5L211.544 163L199.044 155.5L156.544 247.5L124.044 225C117.528 232.433 113.881 235.413 106.044 241L82.5439 225C82.6252 216.236 83.2207 210.753 84.0259 203.339C84.1906 201.822 84.3642 200.224 84.5439 198.5L55.5439 178.5L93.0439 94L83.5439 88.5L46.0439 172.5L27.0439 160L8.04395 184L185.044 310.5L192.044 271.5ZM253.044 246.5L245.044 241.5L229.525 247.5L190.044 263.5L177.044 254L172.544 255L193.044 269.5L253.044 246.5ZM163.544 208L163.044 133.5C168.044 116 135.044 112 127.044 112.5L129.044 186C110.044 183 93.0439 192.5 86.5439 198C86.4499 198.83 86.3598 199.616 86.2737 200.367C85.6168 206.1 85.1944 209.786 85.0439 215C88.9599 209.5 93.0439 207.5 97.0439 206L106.544 212L115.544 210.5V200.5C126.044 199.5 150.978 199.664 161.978 209.5C162.57 208.966 162.684 208.852 163.013 208.525C163.142 208.396 163.305 208.234 163.544 208ZM360.544 206.5L358.044 197L338.544 119.5L232.544 156.5L256.044 247.5L194.044 272L187.044 311L433.544 209L420.544 182L360.544 206.5ZM382.544 172.779V186L360.044 195L341.044 118.5L369.544 109L374.544 108.5H377.544C383.044 109 386.044 114.5 387.044 119.5L395.044 167.5L382.544 172.779ZM396.044 180.5L384.544 185V174L396.044 180.5ZM177.044 251.5L190.544 261L229.525 245L230.044 157.5L213.544 163L171.544 253L177.044 251.5ZM218.044 144L316.544 110.5L313.313 108.801L313.581 106.5L322.044 111L218.044 147L184.044 127.5L181.044 129L142.044 106.5L145.044 105L114.544 88L125.544 84.7L127.044 86.596L120.544 88.5L149.544 105L147.044 106.5L181.044 126L184.044 124.5L218.044 144ZM362.044 203L418.544 180.5L396.044 169L387.044 173L400.544 180.5L360.544 197L362.044 203ZM232.044 162.5L231.544 244.5L245.044 239.5L253.044 244.5L232.044 162.5ZM197.044 154.5L165.544 136L166.044 207.5L171.044 211L197.044 154.5ZM170.544 212.5L165.544 209C154.865 220.562 146.475 224.13 126.544 224.5L155.544 244L170.544 212.5ZM44.5439 169L29.5439 159L52.0439 152L49.0439 157.5L37.0439 161L45.5439 166.5L44.5439 169ZM46.5439 164.5L42.0439 161.5L48.5439 159.5L46.5439 164.5ZM94.0439 97.5L58.5439 176.5L96.5439 164L94.0439 97.5ZM95.5439 95L98.5439 164L126.544 182.5L124.544 112.5L95.5439 95ZM97.0439 166L59.5439 179L85.5439 196.5C91.0439 190 113.044 181 125.544 184L97.0439 166ZM85.0439 224L105.544 238C112.016 234.298 115.736 230.601 120.952 224.5C111.225 218.056 96.5439 208.5 96.5439 208.5C96.5439 208.5 92.3455 209.465 85.0783 218.147C85.0463 219.957 85.0358 221.881 85.0439 224ZM119.544 202.5L145.2 219.671C151.212 217.787 155.344 214.956 160.044 211C148.847 202.376 132.863 202.445 121.837 202.493C121.046 202.497 120.28 202.5 119.544 202.5ZM109.044 214L122.544 223C125.921 222.881 128.579 222.738 131.315 222.461L116.044 212.5L109.044 214ZM117.544 210.5L134.544 222.105C137.536 221.714 139.826 221.212 142.403 220.5L117.544 204V210.5Z" stroke="#7F77E0"/>
</svg>
